SplineFontDB: 3.0
FontName: CloisterStM
FullName: Sorts Mill Cloister
FamilyName: Sorts Mill Cloister
Weight: Regular
Copyright: Created by trashman with FontForge 2.0 (http://fontforge.sf.net)
UComments: "2010-9-19: Created." 
Version: 001.000
ItalicAngle: 0
UnderlinePosition: -100
UnderlineWidth: 50
Ascent: 700
Descent: 300
LayerCount: 3
Layer: 0 0 "Back"  1
Layer: 1 0 "Fore"  0
Layer: 2 0 "backup"  0
NeedsXUIDChange: 1
XUID: [1021 658 797806517 6471305]
OS2Version: 0
OS2_WeightWidthSlopeOnly: 0
OS2_UseTypoMetrics: 1
CreationTime: 1284878830
ModificationTime: 1298656605
OS2TypoAscent: 0
OS2TypoAOffset: 1
OS2TypoDescent: 0
OS2TypoDOffset: 1
OS2TypoLinegap: 0
OS2WinAscent: 0
OS2WinAOffset: 1
OS2WinDescent: 0
OS2WinDOffset: 1
HheadAscent: 0
HheadAOffset: 1
HheadDescent: 0
HheadDOffset: 1
OS2Vendor: 'PfEd'
Lookup: 4 0 1 "'liga' Standard Ligatures in Latin lookup 0"  {"'liga' Standard Ligatures in Latin lookup 0 subtable"  } ['liga' ('latn' <'dflt' > 'DFLT' <'dflt' > ) ]
Lookup: 4 0 0 "'dlig' Discretionary Ligatures in Latin lookup 1"  {"'dlig' Discretionary Ligatures in Latin lookup 1 subtable"  } ['dlig' ('latn' <'dflt' > 'DFLT' <'dflt' > ) ]
MarkAttachClasses: 1
DEI: 91125
Encoding: UnicodeBmp
UnicodeInterp: none
NameList: Adobe Glyph List
DisplaySize: -48
AntiAlias: 1
FitToEm: 1
WinInfo: 84 12 5
BeginPrivate: 9
BlueValues 23 [-18 3 356 376 668 678]
OtherBlues 11 [-281 -272]
BlueScale 8 0.039625
BlueShift 1 7
BlueFuzz 1 0
StdHW 4 [44]
StemSnapH 13 [36 44 49 59]
StdVW 4 [71]
StemSnapV 7 [71 77]
EndPrivate
BeginChars: 65545 91

StartChar: A
Encoding: 65 65 0
Width: 720
VWidth: 0
Flags: W
HStem: -2 35<152.013 205 480 538.868 642.929 681> 213 44<226 452>
DStem2: 85 75 157 112 0.427436 0.904046<21.1656 176.478 224.805 499.971> 414 531 341 507 0.403956 -0.914778<-7.5341 266 313.925 488.413>
LayerCount: 3
Fore
SplineSet
144 70 m 0
 144 39 181 38 205 33 c 1
 205 29 206 26 206 22 c 0
 206 15 205 8 202 -2 c 1
 202 -2 154 3 119 3 c 0
 64 3 30 -3 30 -3 c 1
 26 9 26 15 26 28 c 1
 55 42 72 50 85 75 c 0
 130 164 177 257 222 358 c 0
 251 423 284 486 311 553 c 2
 342 630 l 2
 344 636 347 638 358 638 c 2
 361 638 l 2
 365 638 370 637 371 634 c 2
 414 531 l 1
 471 398 541 249 598 126 c 0
 612 97 629 55 656 41 c 0
 665 36 675 34 682 31 c 1
 683 26 683 20 683 15 c 0
 683 8 682 2 681 -5 c 1
 668 -5 640 0 583 0 c 0
 564 0 484 -5 484 -5 c 1
 481 4 479 11 479 20 c 0
 479 24 480 28 480 33 c 1
 511 37 l 2
 532 40 539 44 539 52 c 0
 539 58 535 67 530 79 c 2
 471 213 l 1
 206 213 l 1
 157 112 l 2
 147 92 144 81 144 70 c 0
452 257 m 1
 341 507 l 1
 226 257 l 1
 452 257 l 1
EndSplineSet
EndChar

StartChar: B
Encoding: 66 66 1
Width: 606
VWidth: 0
Flags: W
HStem: -7 42<56.3993 110.787 208.815 395.38> 329 42<210 381.197> 587 39<74.0677 121.347 216.271 364.084>
VStem: 113 92<42.1859 323.827> 128 82<260.538 329 371 581.661> 426 85<417.255 533.279> 458 93<100.626 254.911>
LayerCount: 3
Fore
SplineSet
205 70 m 0xf0
 205 36 250 35 306 35 c 2
 316 35 l 2
 414 35 458 102 458 181 c 0
 458 233 432 276 384 307 c 0
 356 325 315 329 271 329 c 2
 210 329 l 1xea
 209 299 205 97 205 70 c 0xf0
214 557 m 0
 212 498 211 500 210 371 c 1
 286 371 l 2
 366 371 426 392 426 471 c 0xec
 426 500 409 547 357 572 c 0
 336 582 308 587 280 587 c 2
 277 587 l 2
 249 587 215 587 214 557 c 0
170 3 m 0
 128 3 62 -6 62 -6 c 1
 59 1 56 10 56 20 c 0
 56 25 57 32 58 37 c 1
 105 40 112 48 113 66 c 0xf2
 126 244 128 346 128 503 c 4
 128 586 117 584 77 590 c 1
 75 597 74 603 74 609 c 0
 74 615 75 620 80 625 c 1
 92 624 123 622 161 622 c 0
 183 622 240 626 295 626 c 0
 378 626 447 603 488 555 c 0
 503 538 511 514 511 489 c 0xec
 511 405 444 375 404 353 c 1
 455 333 551 296 551 198 c 0xe2
 551 116 515 57 456 26 c 0
 419 7 374 -7 321 -7 c 0
 267 -7 224 3 170 3 c 0
EndSplineSet
EndChar

StartChar: C
Encoding: 67 67 2
Width: 660
VWidth: 0
Flags: W
HStem: -18 42<297.424 481.402> 584 44<304.457 487.388>
VStem: 54 102<188.675 421.424> 556 34<444.001 508.046> 567 27<117.989 145.859>
LayerCount: 3
Fore
SplineSet
54 318 m 0xf0
 54 495 225 628 394 628 c 0
 447 628 485 618 507 609 c 0
 530 600 542 599 559 599 c 2
 585 599 l 2
 596 599 600 599 600 583 c 0
 600 543 590 454 590 448 c 1
 586 445 580 444 573 444 c 0
 567 444 562 445 556 446 c 1xf0
 555 452 554 462 553 468 c 0
 537 548 474 584 397 584 c 0
 347 584 299 565 261 540 c 0
 187 491 156 421 156 313 c 0
 156 201 192 111 262 65 c 0
 297 42 328 24 384 24 c 0
 481 24 542 69 567 150 c 1
 574 149 581 149 587 146 c 0
 593 143 594 139 594 132 c 0xe8
 594 127 593 120 592 114 c 0
 585 79 570 14 556 -4 c 1
 536 -11 452 -18 417 -18 c 0
 311 -18 238 0 174 53 c 0
 105 110 54 190 54 318 c 0xf0
EndSplineSet
EndChar

StartChar: D
Encoding: 68 68 3
Width: 768
VWidth: 0
Flags: W
HStem: -6 41<38 81.4339> -3 45<194.314 444.284> 587 43<44.4233 101.917 205.62 422.76>
VStem: 94 95<49.9951 330.014> 105 95<293.798 577.736> 600 101<204.501 416.511>
LayerCount: 3
Fore
SplineSet
103 625 m 4xac
 181 625 232 630 314 630 c 4
 362 630 438 625 497 601 c 4
 577 569 631 514 669 439 c 0
 687 403 701 363 701 317 c 0
 701 149 564 0 355 -3 c 0x6c
 288 -3 252 3 164 3 c 0
 118 3 78 -2 44 -6 c 1
 39 1 37 10 37 20 c 0
 37 25 37 30 38 35 c 1
 53 39 70 41 82 47 c 0
 90 51 94 66 94 72 c 0xb4
 104 188 105 391 105 407 c 2
 105 548 l 6
 105 567 98 579 76 581 c 4
 68 582 59 582 48 582 c 5
 46 590 44 596 44 603 c 4
 44 610 46 618 50 627 c 5
 64 626 95 625 103 625 c 4xac
600 316 m 0
 600 364 579 460 508 516 c 4
 452 560 400 587 283 587 c 4
 246 587 201 582 200 550 c 4x6c
 194 355 189 273 189 142 c 0x74
 189 115 190 81 194 65 c 0
 200 42 251 42 292 42 c 2
 311 42 l 2
 504 42 600 140 600 316 c 0
EndSplineSet
EndChar

StartChar: E
Encoding: 69 69 4
Width: 612
VWidth: 0
Flags: W
HStem: -2 34<49.4746 93.7664> 3 43<201.537 459.171> 294 44<199 429.487> 582 43<201 467.328> 586 41<57.2121 111.104>
VStem: 106 90<50.5105 287.055> 115 84<343.2 578> 434 43<206.23 285.906> 452 39<385.3 414.558> 496 27<480.65 527.413>
LayerCount: 3
Fore
SplineSet
536 614 m 5x3440
 523 482 l 5
 516 480 508 480 496 480 c 5
 483 524 478 582 425 582 c 4
 350 582 276 579 201 578 c 5
 199 338 l 5
 397 343 l 6
 431 344 438 356 442 373 c 6
 452 414 l 5
 456 415 460 415 464 415 c 4
 474 415 483 413 491 408 c 5x32c0
 484 356 477 303 477 247 c 4
 477 235 477 222 478 210 c 5
 472 207 466 206 460 206 c 4
 450 206 441 209 436 215 c 5
 434 254 l 6
 432 289 409 289 374 291 c 4
 337 293 311 294 284 294 c 6
 198 294 l 5
 197 234 196 170 196 108 c 4
 196 59 207 46 246 46 c 6
 389 46 l 6
 474 46 497 109 513 155 c 5
 530 155 541 152 551 144 c 5
 532 74 l 6
 525 49 520 25 517 6 c 5
 506 0 l 5
 418 1 311 3 213 3 c 4x7540
 161 3 103 0 55 -2 c 5
 51 6 49 14 49 21 c 4
 49 25 50 28 51 32 c 5
 51 32 57 35 69 39 c 4
 102 50 106 52 106 81 c 4xa540
 108 235 115 382 115 533 c 4
 115 577 106 585 60 586 c 5
 58 592 57 597 57 602 c 4
 57 612 60 621 64 627 c 5xaa40
 105 624 151 622 196 622 c 4
 273 622 329 623 413 625 c 6
 524 628 l 5
 536 614 l 5x3440
EndSplineSet
EndChar

StartChar: F
Encoding: 70 70 5
Width: 531
VWidth: 0
Flags: W
HStem: -3 41<51.2151 103.906 207.399 285.899> 294 42<200 385.283> 581 42<204 439.533> 588 39<59.0898 115.6>
VStem: 105 91<53.6701 292.736> 119 81<336.619 580.886> 404 39<213.036 262 347.219 404.916> 456 32<475.002 559.375>
LayerCount: 3
Fore
SplineSet
204 581 m 1xe7
 200 336 l 1xe7
 357 341 l 2
 404 343 399 368 405 403 c 1
 410 404 415 405 420 405 c 0
 428 405 436 404 444 400 c 1
 440 350 439 337 439 307 c 0
 439 277 443 218 443 218 c 1
 437 215 431 213 425 213 c 0
 418 213 411 215 404 217 c 1
 398 262 l 2
 397 273 391 281 386 284 c 0
 371 293 337 294 316 294 c 2
 199 294 l 1
 198 252 196 204 196 158 c 2
 196 136 l 2
 196 100 196 67 207 53 c 0
 215 43 256 39 280 38 c 1
 284 33 286 26 286 20 c 0
 286 10 282 1 280 -3 c 1
 280 -3 201 2 160 2 c 0
 114 2 56 -3 56 -3 c 1
 53 3 51 13 51 23 c 0
 51 29 52 34 53 38 c 1
 89 43 l 2
 102 45 104 54 105 68 c 0xeb
 114 244 119 391 119 545 c 0
 119 586 104 583 62 588 c 1
 61 593 59 600 59 605 c 0
 59 623 67 627 67 627 c 1xd7
 67 627 147 623 248 623 c 0
 299 623 354 624 412 626 c 0
 436 627 492 631 492 631 c 1
 502 622 l 1
 502 622 491 503 488 478 c 1
 488 478 480 475 472 475 c 0
 467 475 461 476 456 478 c 1
 454 489 455 506 452 522 c 0
 443 574 428 582 390 582 c 0
 345 582 204 581 204 581 c 1xe7
EndSplineSet
EndChar

StartChar: G
Encoding: 71 71 6
Width: 714
VWidth: 0
Flags: W
HStem: -18 46<314.008 537.802> 266 44<423.073 536.499> 480 144<571.281 607> 583 44<306.103 507.488>
VStem: 50 101<193.749 408.427> 539 90<39.7084 131.294> 546 80<48.6501 255.949>
LayerCount: 3
Fore
SplineSet
629 23 m 1xdc
 613 8 l 1
 576 -7 452 -18 417 -18 c 0
 216 -18 50 94 50 288 c 0
 50 465 175 627 403 627 c 0xdc
 483 627 563 607 563 607 c 1
 571 622 l 1
 577 624 583 624 589 624 c 0
 595 624 601 624 607 622 c 1
 607 622 606 490 606 484 c 1
 600 482 595 480 589 480 c 0xec
 585 480 580 481 575 483 c 1
 554 521 530 548 530 548 c 1
 530 548 487 583 410 583 c 0
 251 583 151 456 151 297 c 0
 151 148 267 28 414 28 c 0
 502 28 539 47 539 47 c 1xdc
 543 82 546 130 546 174 c 0
 546 193 544 211 542 227 c 0
 538 257 518 264 478 266 c 0
 457 267 428 269 428 269 c 1
 425 275 423 284 423 290 c 0
 423 297 425 304 430 310 c 1
 469 310 504 308 545 308 c 0
 588 308 634 310 669 314 c 1
 671 310 672 305 672 300 c 0
 672 295 671 290 671 286 c 1
 657 279 641 261 637 240 c 0
 631 210 626 162 626 132 c 0xda
 626 118 629 35 629 23 c 1xdc
EndSplineSet
EndChar

StartChar: H
Encoding: 72 72 7
Width: 792
VWidth: 0
Flags: W
HStem: 2 42<23.4614 92.8499 190.683 258.993 521.461 591.904 690.452 754.987> 306 48<187 601> 592 38<35.0527 99.572 198.653 265.964 531.053 594.439 697.165 763.993>
VStem: 93 99<44.3599 136.282> 98 87<66.0406 306> 105 90<356.957 589.627> 105 81<141.456 306 354 585.645> 601 83<62.7812 306 354 488.949> 604 90<45.5999 305.086 357.192 582.71>
LayerCount: 3
Fore
SplineSet
98 137 m 0xe8
 100 233 105 269 105 354 c 18xe2
 105 503 l 2
 105 525 105 548 101 567 c 0
 97 588 90 592 74 592 c 2
 40 592 l 1
 37 597 35 605 35 613 c 0
 35 620 37 626 41 631 c 1
 71 630 120 626 151 626 c 0
 184 626 232 629 261 630 c 1
 265 626 266 620 266 613 c 0
 266 606 265 598 263 593 c 1
 237 592 l 2
 204 591 197 583 195 550 c 0
 191 485 189 417 187 354 c 1
 604 354 l 1
 604 503 l 2
 604 525 602 546 598 565 c 0
 594 586 565 588 549 588 c 2
 536 588 l 1
 533 594 531 602 531 609 c 0
 531 617 533 625 537 630 c 1
 537 630 546 630 560 629 c 0
 585 627 625 624 650 624 c 0
 675 624 704 627 726 629 c 0
 745 630 759 630 759 630 c 1
 763 626 764 619 764 612 c 0
 764 604 763 595 761 589 c 1
 737 589 l 2
 701 589 695 583 694 550 c 0xe480
 688 443 684 325 684 241 c 2
 684 175 l 2
 684 137 685 99 691 61 c 4
 694 46 710 45 731 44 c 6
 752 43 l 5
 754 39 755 29 755 24 c 4
 755 15 753 7 750 1 c 5
 750 1 689 2 636 2 c 4
 599 2 526 -1 526 -1 c 5
 526 -1 521 9 521 17 c 4
 521 26 525 41 525 41 c 5
 525 41 556 43 580 45 c 4
 596 46 599 115 599 137 c 0
 599 165 601 220 601 241 c 2
 601 306 l 1
 186 306 l 1xe3
 186 283 185 261 185 241 c 2
 185 152 l 2xe8
 185 121 186 87 192 57 c 4
 195 44 210 43 228 43 c 6
 255 43 l 5
 257 39 259 29 259 24 c 4
 259 15 258 9 255 1 c 5
 255 1 190 2 137 2 c 4
 100 2 28 -1 28 -1 c 5
 28 -1 23 9 23 17 c 4
 23 26 27 41 27 41 c 5
 69 44 l 6
 74 44 90 54 93 65 c 4xf0
 98 87 98 122 98 137 c 0xe8
EndSplineSet
EndChar

StartChar: I
Encoding: 73 73 8
Width: 330
VWidth: 0
Flags: W
HStem: -3 44<20.0255 110.926 207.832 303.949> 591 39<32.0361 119.572 217.077 305.981>
VStem: 120 84<47.8758 583.084> 125 88<353.88 587.287>
LayerCount: 3
Fore
SplineSet
204 94 m 2xe0
 204 62 207 45 248 42 c 0
 258 41 277 41 300 40 c 1
 302 36 304 27 304 22 c 0
 304 13 303 7 300 -1 c 1
 300 -1 207 3 155 3 c 0
 93 3 27 -3 27 -3 c 1
 27 -3 20 10 20 18 c 0
 20 27 24 41 24 41 c 1
 52 41 l 2
 102 41 120 42 120 136 c 0xe0
 120 215 125 281 125 353 c 2
 125 502 l 2
 125 524 125 547 121 566 c 0
 117 587 110 591 94 591 c 2
 37 591 l 1
 34 596 32 604 32 612 c 0
 32 619 34 625 38 630 c 1
 68 629 140 625 171 625 c 0
 204 625 274 629 301 631 c 1
 305 627 306 619 306 612 c 0
 306 605 305 596 303 591 c 1
 257 590 l 2
 224 589 215 582 213 549 c 0xd0
 210 502 207 370 207 353 c 0
 207 329 204 213 204 135 c 2
 204 94 l 2xe0
EndSplineSet
EndChar

StartChar: J
Encoding: 74 74 9
Width: 296
VWidth: 0
Flags: W
HStem: -215 71<-12 78.8926> 588 40<33.0527 110.866 203.97 265.835>
VStem: 117 83<-46.0162 588.162>
LayerCount: 3
Fore
SplineSet
111 567 m 0
 110 588 95 589 86 589 c 2
 38 588 l 1
 35 593 33 602 33 610 c 0
 33 617 35 623 39 628 c 1
 60 627 81 627 102 627 c 0
 157 627 213 629 261 633 c 1
 265 629 266 620 266 613 c 0
 266 606 265 598 263 593 c 1
 238 592 l 2
 214 591 204 583 203 560 c 0
 201 518 201 471 201 424 c 0
 201 298 200 242 200 72 c 0
 200 57 197 30 194 12 c 0
 176 -89 111 -215 10 -215 c 0
 -34 -215 -75 -180 -75 -144 c 0
 -75 -114 -47 -92 -22 -92 c 0
 10 -92 15 -144 57 -144 c 0
 111 -144 117 -28 117 86 c 2
 117 350 l 2
 117 424 115 504 111 567 c 0
EndSplineSet
EndChar

StartChar: K
Encoding: 75 75 10
Width: 638
VWidth: 0
Flags: W
HStem: -12 40<550.406 618.58> 1 42<19.2688 86.8445 190.921 258.977> 587 39<512.722 597.822> 593 38<35.0132 100.133 201.016 267.988 374.013 420.467>
VStem: 96 88<48.1947 322.235> 107 88<382.938 587.504>
DStem2: 187 380 255 375 0.788894 0.614529<50.5721 301.683>
LayerCount: 3
Fore
SplineSet
400 540 m 0x54
 412 550 421 561 421 571 c 0
 421 579 410 594 379 594 c 1
 376 599 374 603 374 611 c 0
 374 618 375 621 379 628 c 1
 409 627 454 626 485 626 c 4
 518 626 565 628 594 629 c 1
 597 624 598 618 598 611 c 0
 598 602 596 593 594 587 c 1
 557 587 l 2
 535 587 536 586 518 574 c 0
 406 497 255 375 255 375 c 1
 255 375 396 188 496 90 c 0
 525 61 540 52 577 34 c 0
 584 30 600 30 617 28 c 1
 619 25 619 20 619 15 c 0
 619 4 616 -7 611 -12 c 1xa4
 547 -10 501 -7 449 32 c 0
 393 74 335 138 287 196 c 0
 229 265 186 324 186 324 c 1
 186 264 185 210 184 152 c 0
 184 121 186 87 192 57 c 0
 195 44 210 43 228 43 c 2
 255 43 l 1
 257 39 259 29 259 24 c 0
 259 15 258 9 255 1 c 1
 255 1 190 2 137 2 c 0
 100 2 24 -1 24 -1 c 1
 24 -1 19 7 19 17 c 0
 19 30 24 44 24 44 c 1
 66 46 l 2
 95 47 95 103 96 132 c 0x48
 100 268 107 365 107 503 c 0
 107 525 106 548 102 567 c 0
 98 588 86 593 70 593 c 2
 40 593 l 1
 37 598 35 605 35 613 c 0
 35 620 37 626 41 631 c 1
 45 631 49 631 53 631 c 0
 79 631 111 627 151 627 c 0
 184 627 234 631 263 632 c 1
 267 628 268 620 268 613 c 0
 268 606 267 597 265 592 c 1
 221 590 198 594 195 550 c 0
 191 485 189 443 187 380 c 1
 270 441 320 475 400 540 c 0x54
EndSplineSet
EndChar

StartChar: L
Encoding: 76 76 11
Width: 546
VWidth: 0
Flags: W
HStem: 3 39<33.0519 94.2134 186 428.272> 585 40<39.0132 101.155 198.871 280.972>
VStem: 99 85<44 341.289> 107 89<288.947 582.137>
LayerCount: 3
Fore
SplineSet
38 -2 m 1xe0
 35 3 33 11 33 20 c 0
 33 27 34 34 37 39 c 1
 37 39 59 41 68 42 c 0
 84 44 91 48 95 64 c 0
 99 77 99 94 99 109 c 0xe0
 102 212 107 264 107 353 c 2
 107 517 l 2
 107 553 105 585 70 585 c 2
 43 585 l 1
 41 589 39 597 39 604 c 0
 39 613 41 623 45 627 c 1
 75 626 120 623 151 623 c 0
 184 623 247 624 276 625 c 1
 280 621 281 614 281 607 c 0
 281 600 280 590 278 585 c 1
 237 585 l 2
 204 585 198 577 196 544 c 0xd0
 189 388 184 126 184 90 c 0
 184 68 186 44 186 44 c 1
 234 42 268 42 310 42 c 0
 331 42 352 43 373 44 c 0
 446 46 470 106 484 148 c 0
 488 159 490 170 502 170 c 0
 519 170 519 160 519 145 c 0
 519 134 510 98 502 76 c 0
 494 55 493 26 487 4 c 1
 476 -2 l 1
 386 3 234 3 136 3 c 0
 101 3 55 -1 38 -2 c 1xe0
EndSplineSet
EndChar

StartChar: M
Encoding: 77 77 12
Width: 866
VWidth: 0
Flags: W
HStem: -2 42<157.139 228.913 568.087 645 744.452 793.946> 589 41<35.0886 95 206.003 275.974 591.012 641.998 748.698 799.906>
VStem: 87 55<73.4092 384.104> 95 111<539.374 588.984> 95 46<337.4 511.993> 646 99<42.7156 150.545> 651 87<66.0406 389.836> 664 84<301.66 531.986>
DStem2: 214 565 167 476 0.442644 -0.896697<17.5413 464.927>
LayerCount: 3
Fore
SplineSet
738 152 m 0xc2
 738 121 739 87 745 57 c 0
 748 44 745 40 763 40 c 2
 790 40 l 1
 792 36 794 26 794 21 c 0
 794 12 791 4 787 -2 c 1
 787 -2 743 2 690 2 c 0
 653 2 573 -1 573 -1 c 1
 573 -1 568 9 568 17 c 0
 568 26 572 41 572 41 c 1
 638 43 l 2
 643 43 643 54 646 65 c 0xc4
 651 87 651 122 651 137 c 0xc2
 654 270 659 378 664 504 c 0
 664 513 667 532 664 532 c 0
 660 532 649 509 642 494 c 0
 593 388 532 269 486 175 c 1
 439 83 l 2
 419 46 412 24 399 24 c 0
 385 24 379 47 361 83 c 2
 167 476 l 2
 158 494 151 512 146 512 c 0
 143 512 141 503 141 477 c 0xc9
 141 339 142 220 142 132 c 0
 142 116 143 96 147 80 c 0
 156 47 190 40 225 37 c 1
 225 37 229 26 229 17 c 0
 229 9 224 -1 224 -1 c 1
 224 -1 159 3 122 3 c 0
 69 3 28 0 28 0 c 1
 25 4 21 12 21 20 c 0
 21 26 23 30 26 35 c 1
 62 47 75 51 80 72 c 0
 86 102 87 136 87 167 c 0xe0
 87 282 95 469 95 547 c 2
 95 575 l 2
 95 584 89 590 38 592 c 1
 36 599 35 606 35 613 c 0
 35 620 36 627 37 633 c 1
 100 631 152 630 211 630 c 2
 273 630 l 1
 275 622 276 614 276 608 c 0
 276 600 275 593 274 587 c 1
 255 588 237 589 218 589 c 0
 210 589 206 587 206 583 c 0
 206 579 210 573 214 565 c 2
 320 356 l 2
 362 273 416 148 420 148 c 0
 427 148 535 394 634 566 c 0
 638 573 642 579 642 583 c 0
 642 587 639 589 629 589 c 0
 621 589 606 589 595 588 c 1
 592 593 591 603 591 611 c 0
 591 618 592 624 596 629 c 1
 626 628 673 627 704 627 c 0
 737 627 765 628 794 629 c 1
 798 625 800 620 800 613 c 0
 800 606 799 598 797 593 c 1
 780 592 l 2
 747 590 749 583 748 550 c 0xd1
 744 425 738 281 738 152 c 0xc2
EndSplineSet
EndChar

StartChar: N
Encoding: 78 78 13
Width: 792
VWidth: 0
Flags: W
HStem: -1 41<17.1436 81.6339 149.025 246.876> 587 40<527.053 572 671.057 742.974>
VStem: 89 52<50.5456 505.994> 612 56<328.748 578.182>
LayerCount: 3
Fore
SplineSet
645 -4 m 2
 637 -4 l 2
 624 -4 619 8 613 17 c 0
 590 49 568 91 524 135 c 2
 176 480 l 2
 162 493 154 506 148 506 c 0
 141 506 141 498 141 477 c 0
 141 318 142 206 143 93 c 0
 143 54 149 48 216 40 c 0
 222 39 235 37 243 36 c 1
 243 36 247 26 247 17 c 0
 247 9 242 -1 242 -1 c 1
 242 -1 159 2 122 2 c 0
 69 2 20 0 20 0 c 1
 18 5 17 11 17 16 c 0
 17 24 19 31 21 35 c 1
 88 49 81 50 82 72 c 0
 86 130 89 267 89 381 c 0
 89 412 88 441 88 467 c 0
 88 494 88 519 86 540 c 0
 84 557 68 576 54 584 c 0
 46 589 34 595 34 595 c 1
 34 595 32 603 33 610 c 0
 34 620 38 627 38 627 c 1
 49 627 132 625 154 623 c 0
 162 622 180 610 197 588 c 0
 227 548 597 174 604 174 c 0
 608 174 612 400 612 526 c 0
 612 555 602 576 592 578 c 2
 532 588 l 1
 529 593 527 601 527 609 c 0
 527 616 529 622 533 627 c 1
 563 626 605 623 636 623 c 0
 660 623 688 627 713 627 c 0
 723 627 730 627 740 626 c 1
 743 621 743 615 743 609 c 0
 743 601 742 592 740 587 c 1
 714 587 l 2
 681 587 670 581 668 548 c 0
 661 430 656 307 656 188 c 0
 656 90 662 43 662 14 c 0
 662 4 662 -4 645 -4 c 2
EndSplineSet
EndChar

StartChar: O
Encoding: 79 79 14
Width: 695
VWidth: 0
Flags: W
HStem: -18 52<275.647 460.436> 576 52<239.504 418.573>
VStem: 20 102<211.199 412.569> 574 100<192.461 393.605>
LayerCount: 3
Fore
SplineSet
348 -18 m 0
 174 -18 20 95 20 298 c 0
 20 480 162 628 346 628 c 0
 539 628 674 483 674 316 c 0
 674 96 507 -18 348 -18 c 0
320 576 m 0
 212 576 122 468 122 338 c 0
 122 154 236 34 371 34 c 0
 490 34 574 130 574 258 c 0
 574 416 496 576 320 576 c 0
EndSplineSet
EndChar

StartChar: P
Encoding: 80 80 15
Width: 531
VWidth: 0
Flags: W
HStem: -2 42<25.0131 85.6823 184.823 279.857> 226 44<181 332.685> 591 38<42.2387 91.8317 202.609 340.701>
VStem: 86 93<46.5011 231 274 322.69> 98 87<415 577.057> 414 93<347.352 521.554>
LayerCount: 3
Fore
SplineSet
414 435 m 0xec
 414 535 353 591 266 591 c 0
 220 591 197 586 191 539 c 0
 187 510 185 472 185 462 c 2
 181 274 l 1
 181 274 205 270 235 270 c 0
 286 270 414 285 414 435 c 0xec
98 545 m 0
 98 575 85 585 63 585 c 0
 58 585 47 584 42 584 c 1
 38 589 36 596 36 603 c 0
 36 611 38 619 41 624 c 1
 41 624 149 629 249 629 c 0
 333 629 507 609 507 431 c 0
 507 312 391 226 273 226 c 0
 233 226 183 231 180 231 c 1
 180 231 179 201 179 155 c 2
 179 80 l 2
 179 60 196 41 225 41 c 2
 275 41 l 1
 279 36 280 30 280 23 c 0
 280 14 278 5 275 -1 c 1
 275 -1 181 0 140 0 c 0
 110 0 82 -2 52 -2 c 2
 30 -2 l 1
 27 5 25 12 25 20 c 0
 25 26 26 34 29 40 c 1
 74 40 l 2
 87 40 85 53 86 67 c 0xf4
 94 245 98 392 98 545 c 0
EndSplineSet
EndChar

StartChar: Q
Encoding: 81 81 16
Width: 707
VWidth: 0
Flags: W
HStem: -281 44<550.837 688.983> 582 46<268.175 437.952>
VStem: 26 102<175.605 409.298> 580 101<190.262 424.021>
LayerCount: 3
Fore
SplineSet
354 582 m 0
 211 582 128 422 128 292 c 0
 128 144 226 23 342 23 c 0
 532 23 580 197 580 322 c 0
 580 480 462 582 354 582 c 0
247 -1 m 0
 122 42 26 136 26 294 c 0
 26 476 166 628 350 628 c 0
 543 628 681 479 681 312 c 0
 681 144 570 27 440 -7 c 0
 418 -13 410 -14 410 -24 c 0
 410 -29 411 -35 414 -44 c 0
 429 -91 460 -139 480 -165 c 0
 511 -204 584 -237 632 -237 c 0
 652 -237 686 -234 686 -234 c 1
 689 -238 691 -243 691 -249 c 0
 691 -253 690 -257 689 -261 c 1
 689 -261 666 -281 610 -281 c 0
 525 -281 441 -248 392 -191 c 0
 371 -166 330 -105 313 -54 c 0
 297 -6 294 -17 247 -1 c 0
EndSplineSet
EndChar

StartChar: R
Encoding: 82 82 17
Width: 565
VWidth: 0
Flags: W
HStem: -6 38<25.3167 68.625 220.25 247.595 476.575 544.828> 264 38<178 270.048> 583 36<47.1187 99.9951> 590 38<188.934 332.83>
VStem: 92 86<43.8627 266 304 323.125> 101 77<315.769 581.987> 405 87<367.44 525.112>
LayerCount: 3
Fore
SplineSet
101 555 m 0xd6
 101 569 98 580 80 582 c 0
 73 583 59 583 53 583 c 1
 49 590 47 596 47 604 c 0
 47 610 48 614 51 619 c 1xe6
 51 619 124 628 249 628 c 0
 333 628 492 585 492 448 c 0
 492 381 454 330 402 304 c 0
 391 299 374 290 362 286 c 0
 349 281 348 279 348 276 c 0
 348 267 350 263 356 248 c 0
 392 161 442 58 494 40 c 0
 511 34 542 32 542 32 c 1
 544 26 545 22 545 17 c 0
 545 9 543 1 540 -4 c 1
 532 -6 514 -6 501 -6 c 0
 394 -6 323 90 275 238 c 0
 268 260 262 264 239 264 c 0
 208 264 178 266 176 266 c 1
 176 266 179 201 179 155 c 2
 179 80 l 2
 179 60 188 42 217 40 c 2
 243 38 l 1
 247 33 248 27 248 20 c 0
 248 11 246 2 243 -4 c 1
 243 -4 181 0 140 0 c 0
 103 0 82 0 30 -3 c 1
 27 4 25 10 25 18 c 0
 25 24 28 32 31 38 c 1
 74 40 l 2
 87 41 92 60 92 74 c 0xda
 97 253 101 399 101 555 c 0xd6
405 444 m 0
 405 544 336 590 248 590 c 0
 202 590 181 583 181 536 c 0
 181 489 178 439 178 386 c 2xd6
 178 304 l 1xda
 192 303 216 302 232 302 c 0
 312 302 405 323 405 444 c 0
EndSplineSet
EndChar

StartChar: S
Encoding: 83 83 18
Width: 534
VWidth: 0
Flags: W
HStem: -18 46<160.662 346.166> 590 44<208.559 365.438>
VStem: 33 37<139.012 173.783> 73 84<429.662 535.076> 407 95<80.35 203.489> 407 41<622 638.994>
LayerCount: 3
Fore
SplineSet
254 28 m 0xf8
 352 28 407 80 407 138 c 0xf8
 407 313 73 237 73 459 c 0
 73 574 198 634 308 634 c 0
 347 634 405 622 405 622 c 1
 407 635 l 1
 413 637 421 639 428 639 c 0
 435 639 442 637 448 635 c 1xf4
 452 564 457 535 468 466 c 1
 459 460 450 460 437 459 c 1
 427 482 l 2
 408 526 402 542 374 562 c 0
 352 578 343 590 286 590 c 0
 200 590 157 533 157 486 c 0
 157 327 502 370 502 158 c 0
 502 30 379 -18 242 -18 c 4
 189 -18 136 -12 93 -12 c 0
 83 -12 77 -13 73 -13 c 0
 66 -13 64 -10 61 6 c 0
 52 61 43 110 33 164 c 1
 40 170 50 175 60 175 c 0
 63 175 67 174 70 173 c 1
 80 153 93 129 105 108 c 0
 114 93 123 78 137 66 c 0
 162 44 206 28 254 28 c 0xf8
EndSplineSet
EndChar

StartChar: T
Encoding: 84 84 19
Width: 642
VWidth: 0
Flags: W
HStem: -3 43<181.006 268.408 372.409 459.931> 575 46<91.1164 277.999 368 553.683>
VStem: 23 32<474.143 525.056> 276 88<47.8117 574.046> 569 43<477.493 559.959>
LayerCount: 3
Fore
SplineSet
327 621 m 0
 360 621 394 622 542 626 c 0
 559 626 582 630 597 630 c 0
 612 630 619 624 619 614 c 0
 619 607 614 575 612 559 c 0
 609 531 607 508 600 476 c 1
 598 475 593 474 587 474 c 0
 580 474 572 475 569 476 c 1
 566 492 566 510 563 528 c 0
 556 575 526 576 426 576 c 0
 386 576 369 576 368 555 c 0
 365 476 364 412 364 349 c 2
 364 187 l 6
 364 168 364 139 365 117 c 4
 367 71 368 48 396 45 c 4
 406 44 433 41 456 40 c 5
 458 36 460 27 460 22 c 4
 460 13 459 7 456 -1 c 5
 456 -1 363 3 311 3 c 4
 278 3 236 -3 208 -3 c 6
 186 -3 l 5
 183 3 181 10 181 18 c 4
 181 26 183 34 187 40 c 5
 216 41 l 6
 266 43 276 42 276 136 c 6
 276 382 l 2
 276 440 278 504 278 559 c 0
 278 568 276 574 264 575 c 0
 251 576 231 578 212 578 c 0
 197 578 183 578 167 577 c 0
 129 575 87 561 74 533 c 0
 64 510 61 498 55 477 c 1
 52 475 47 474 42 474 c 0
 35 474 27 476 23 479 c 1
 25 523 28 526 32 559 c 8
 35 582 36 597 39 619 c 0
 40 627 49 631 59 631 c 0
 70 631 99 628 120 627 c 0
 209 622 301 621 327 621 c 0
EndSplineSet
EndChar

StartChar: U
Encoding: 85 85 20
Width: 792
VWidth: 0
Flags: W
HStem: -12 46<289.139 525.818> 584 43<541.006 627.544 695.432 760.927> 593 39<28.0059 94.2097 192.484 262.988>
VStem: 93 88<140.124 585.083> 628 66<370.051 578.496> 634 51<162.641 557.318>
LayerCount: 3
Fore
SplineSet
547 627 m 1xd8
 575 624 628 623 660 623 c 0
 689 623 728 626 756 627 c 1
 760 623 761 616 761 609 c 0
 761 601 760 592 758 586 c 1
 734 585 l 2
 698 584 695 569 694 550 c 0xd8
 691 503 686 440 685 356 c 0
 683 155 656 -12 391 -12 c 0
 254 -12 107 28 96 172 c 0
 94 200 93 240 93 283 c 0
 93 390 98 516 98 519 c 0
 98 537 98 554 95 570 c 0
 92 592 69 593 53 593 c 2
 33 593 l 1
 30 599 28 606 28 613 c 0
 28 619 30 627 34 632 c 1
 63 629 115 626 147 626 c 0
 179 626 231 629 258 631 c 1
 262 627 263 621 263 614 c 0
 263 606 262 597 260 591 c 1
 241 591 l 2
 207 591 189 588 187 550 c 0
 185 515 181 412 181 323 c 0
 181 299 181 276 182 256 c 0
 188 136 210 34 421 34 c 0
 620 34 634 186 634 367 c 0xb4
 634 432 634 503 628 560 c 0
 627 573 614 579 586 582 c 0
 576 583 554 584 545 584 c 1
 542 590 541 599 541 606 c 0
 541 614 543 622 547 627 c 1xd8
EndSplineSet
EndChar

StartChar: V
Encoding: 86 86 21
Width: 700
VWidth: 1
Flags: W
HStem: -18 21G<363 369> 589 40<24.0122 63.3801 173.289 225.949 501.007 564.549 640.334 677.972>
LayerCount: 3
Fore
SplineSet
28 589 m 1
 25 595 24 601 24 608 c 0
 24 615 25 623 29 629 c 1
 59 628 95 628 127 628 c 0
 159 628 190 628 221 629 c 1
 225 625 226 619 226 612 c 0
 226 604 225 595 223 589 c 1
 195 589 l 2
 179 589 173 585 173 562 c 0
 173 546 313 253 362 152 c 0
 370 135 378 121 380 121 c 0
 384 121 389 135 397 152 c 0
 441 250 566 532 566 554 c 0
 566 570 565 583 536 586 c 0
 526 587 514 588 505 588 c 1
 502 594 501 602 501 610 c 0
 501 618 502 624 506 629 c 1
 538 629 549 624 592 624 c 0
 625 624 646 630 673 630 c 1
 677 626 678 619 678 611 c 0
 678 603 677 594 675 589 c 1
 639 585 612 540 576 456 c 2
 470 211 l 1
 435 135 407 57 379 -10 c 0
 376 -16 372 -18 366 -18 c 0
 360 -18 354 -16 351 -10 c 0
 265 175 163 380 102 500 c 0
 71 561 60 589 28 589 c 1
EndSplineSet
EndChar

StartChar: W
Encoding: 87 87 22
Width: 956
VWidth: 0
Flags: W
HStem: -13 16G<323 329 613 619> 589 33<30.4106 61.6756 173.367 219.547 277.413 315.323 421.844 458.555 519.036 570.944 643.412 687.835 751.036 811.568 898.293 931.997>
DStem2: 497 386 356 500 0.433018 -0.901385<-191.155 0 37.2768 70.9351 104.516 295.937> 374 150 474 259 0.459738 0.888055<-41.5243 142.772 266.129 454.22>
LayerCount: 3
Fore
SplineSet
28 589 m 1
 25 595 24 601 24 608 c 0
 24 615 25 623 29 629 c 1
 59 628 95 626 127 626 c 0
 159 626 190 628 221 629 c 1
 224 623 225 617 225 611 c 0
 225 603 223 595 221 589 c 1
 195 589 l 2
 179 589 173 587 173 564 c 0
 173 548 294 252 334 152 c 0
 341 135 351 114 353 114 c 0
 357 114 366 133 374 150 c 0
 389 184 420 242 451 302 c 1
 356 500 l 2
 316 584 309 589 275 589 c 1
 272 597 271 604 271 610 c 0
 271 617 272 623 276 629 c 1
 306 628 345 628 377 628 c 0
 409 628 429 628 460 629 c 1
 464 625 465 619 465 612 c 0
 465 604 464 595 462 589 c 1
 445 589 l 2
 429 589 421 585 421 562 c 0
 421 554 457 472 497 386 c 1
 539 469 575 547 575 558 c 0
 575 579 558 589 523 589 c 1
 521 594 519 600 519 607 c 0
 519 614 521 621 524 626 c 1
 563 625 580 622 602 622 c 0
 631 622 639 626 683 627 c 1
 687 623 688 619 688 611 c 0
 688 603 687 594 685 589 c 1
 649 587 642 577 617 532 c 0
 590 484 558 411 521 338 c 1
 611 152 l 2
 621 132 625 121 629 121 c 0
 633 121 637 131 647 152 c 0
 691 250 815 536 815 558 c 0
 815 586 790 586 755 586 c 1
 753 592 751 599 751 607 c 0
 751 615 752 622 756 626 c 1
 788 626 799 624 842 624 c 0
 875 624 900 625 927 625 c 1
 931 621 932 614 932 606 c 0
 932 598 931 590 929 585 c 1
 886 582 863 532 824 444 c 2
 721 211 l 2
 687 135 657 57 629 -10 c 0
 626 -16 622 -18 616 -18 c 0
 610 -18 604 -16 601 -10 c 2
 474 259 l 1
 339 -5 l 2
 336 -11 332 -13 326 -13 c 0
 320 -13 311 -11 309 -5 c 0
 236 179 157 380 103 500 c 0
 75 562 60 587 28 589 c 1
EndSplineSet
Layer: 2
SplineSet
28 589 m 5
 25 595 24 601 24 608 c 4
 24 615 25 623 29 629 c 5
 59 628 95 628 127 628 c 4
 159 628 190 628 221 629 c 5
 225 625 226 619 226 612 c 4
 226 604 225 595 223 589 c 5
 195 589 l 6
 179 589 173 585 173 562 c 4
 173 546 292 252 332 152 c 4
 339 135 348 121 350 121 c 4
 354 121 369 135 377 152 c 4
 392 186 420 242 451 302 c 5
 352 500 l 6
 321 561 310 589 278 589 c 5
 275 595 274 601 274 608 c 4
 274 615 275 623 279 629 c 5
 309 628 345 628 377 628 c 4
 409 628 429 628 460 629 c 5
 464 625 465 619 465 612 c 4
 465 604 464 595 462 589 c 5
 445 589 l 6
 429 589 423 585 423 562 c 4
 423 554 457 479 497 393 c 5
 539 476 575 547 575 558 c 4
 575 574 575 583 546 586 c 4
 536 587 524 588 515 588 c 5
 512 594 511 602 511 610 c 4
 511 618 512 624 516 629 c 5
 548 629 559 624 602 624 c 4
 635 624 656 630 683 630 c 5
 687 626 688 619 688 611 c 4
 688 603 687 594 685 589 c 5
 667 588 l 6
 632 584 583 468 520 344 c 5
 612 152 l 6
 620 135 628 121 630 121 c 4
 634 121 639 135 647 152 c 4
 691 250 815 536 815 558 c 4
 815 586 790 586 755 586 c 5
 750 597 749 617 756 626 c 5
 788 626 799 624 842 624 c 4
 875 624 900 625 927 625 c 5
 931 621 932 614 932 606 c 4
 932 598 929 589 927 584 c 5
 917 583 l 6
 869 578 804 393 720 211 c 4
 685 135 657 57 629 -10 c 4
 626 -16 622 -18 616 -18 c 4
 610 -18 604 -16 601 -10 c 6
 474 255 l 5
 450 211 l 5
 409 138 367 57 339 -10 c 4
 336 -16 332 -18 326 -18 c 4
 320 -18 314 -16 311 -10 c 4
 225 175 163 380 102 500 c 4
 71 561 60 589 28 589 c 5
EndSplineSet
EndChar

StartChar: X
Encoding: 88 88 23
Width: 666
VWidth: 0
Flags: W
HStem: -1 37<17.0143 52.9449 148.413 209.833 411.014 454.88 595.734 639.641> 589 40<19.5622 78.0176 193.001 244.941 464.013 513.694 594.992 644.981>
DStem2: 334 370 278 310 0.60704 -0.794671<-247.601 10.3371 70.3218 333.815> 278 292 196 139 0.6801 0.733119<-257.757 4.20938 96.586 359.465>
LayerCount: 3
Fore
SplineSet
207 35 m 1
 209 31 210 26 210 21 c 0
 210 14 208 6 206 0 c 1
 176 0 140 4 125 4 c 0
 90 4 22 -1 22 -1 c 1
 22 -1 17 9 17 17 c 0
 17 26 21 36 21 36 c 1
 33 41 43 42 62 63 c 2
 278 292 l 2
 286 300 285 301 278 310 c 2
 108 533 l 2
 85 563 74 580 46 587 c 0
 40 589 33 589 26 589 c 1
 23 596 19 606 19 615 c 0
 19 620 20 625 23 629 c 1
 53 628 95 627 127 627 c 0
 159 627 209 628 240 629 c 1
 244 625 245 619 245 612 c 0
 245 604 244 597 242 591 c 1
 229 591 l 2
 194 591 193 584 193 575 c 0
 193 554 301 412 334 370 c 0
 344 358 343 358 353 370 c 2
 434 464 l 2
 475 512 514 552 514 564 c 0
 514 572 512 584 501 586 c 0
 491 587 477 588 468 588 c 1
 466 594 464 602 464 610 c 0
 464 616 465 621 468 625 c 1
 482 624 514 624 557 624 c 0
 590 624 614 626 641 626 c 1
 644 623 645 615 645 610 c 0
 645 602 642 595 640 589 c 1
 610 587 595 570 579 554 c 0
 531 509 466 434 420 385 c 2
 377 339 l 2
 371 332 367 331 373 323 c 2
 462 211 l 2
 525 132 584 40 636 37 c 1
 638 33 640 29 640 24 c 0
 640 15 638 5 635 -1 c 1
 635 -1 579 2 526 2 c 0
 489 2 416 -3 416 -3 c 1
 416 -3 411 9 411 17 c 0
 411 26 415 39 415 39 c 1
 415 39 432 40 456 42 c 0
 464 43 467 46 467 51 c 0
 467 62 452 81 438 101 c 2
 320 262 l 2
 313 272 313 271 305 262 c 0
 285 241 235 186 196 139 c 0
 168 105 146 80 146 62 c 0
 146 40 190 40 207 35 c 1
EndSplineSet
EndChar

StartChar: Y
Encoding: 89 89 24
Width: 694
VWidth: 1
Flags: W
LayerCount: 3
Fore
SplineSet
366 188 m 2xb0
 366 169 366 140 367 118 c 0
 369 72 370 43 398 42 c 2
 458 40 l 1
 461 34 463 28 463 22 c 0
 463 14 460 5 455 -2 c 1
 455 -2 365 3 313 3 c 0x70
 278 3 220 -3 192 -4 c 1
 188 0 183 12 183 20 c 0
 183 26 185 33 189 39 c 1
 218 40 l 2
 268 42 278 43 278 137 c 2
 278 270 l 2
 278 287 277 293 270 302 c 2
 108 534 l 2
 87 565 74 581 46 588 c 0
 40 590 28 590 21 590 c 1
 18 597 16 607 16 616 c 0
 16 621 17 626 20 630 c 1
 50 629 95 628 127 628 c 0
 159 628 211 629 242 630 c 1
 246 626 247 620 247 613 c 0
 247 605 244 598 242 592 c 1
 229 592 l 2
 194 592 188 585 188 576 c 0
 188 554 306 392 338 348 c 0
 347 335 348 339 357 350 c 2
 451 465 l 2
 492 514 531 553 531 565 c 0
 531 591 494 592 470 592 c 1
 468 599 463 607 463 616 c 0
 463 620 464 624 467 629 c 1
 524 629 531 625 574 625 c 0
 607 625 639 627 666 627 c 1
 669 624 670 616 670 611 c 0
 670 603 667 598 665 592 c 1
 630 592 609 571 593 555 c 0
 526 491 445 386 385 318 c 0
 376 308 366 299 366 279 c 2
 366 188 l 2xb0
EndSplineSet
EndChar

StartChar: Z
Encoding: 90 90 25
Width: 686
VWidth: 0
Flags: W
HStem: -7 21G<47.5 87.5> 4 43<182.998 537.426> 579 44<142.484 455.114> 583 49<425.5 503.991>
LayerCount: 3
Fore
SplineSet
476 583 m 0x90
 354 583 308 582 227 579 c 0x20
 211 578 143 577 116 532 c 0
 92 491 72 435 59 413 c 1
 56 412 51 410 47 410 c 0
 38 410 28 414 25 419 c 1
 40 476 59 572 75 632 c 0x10
 77 641 88 645 95 645 c 0
 113 645 126 626 128 625 c 0
 164 623 213 623 247 623 c 0x20
 366 623 474 627 637 632 c 1
 650 626 654 613 655 602 c 1
 526 470 311 232 183 62 c 0
 175 51 172 47 190 47 c 2
 426 47 l 2x50
 499 47 527 50 561 91 c 0
 590 125 639 201 639 201 c 1
 662 198 669 184 669 184 c 1
 638 117 615 56 590 -7 c 0x80
 584 -22 583 -30 566 -30 c 0
 553 -30 551 -26 546 -14 c 0
 542 -5 544 -1 530 -1 c 0
 419 -1 289 4 246 4 c 0x40
 188 4 122 2 53 -7 c 1
 42 -4 35 7 33 20 c 1
 38 32 52 44 73 66 c 0
 130 128 139 138 178 188 c 0
 282 318 387 420 501 566 c 0
 504 570 504 572 504 575 c 0
 504 583 492 583 476 583 c 0x90
EndSplineSet
EndChar

StartChar: a
Encoding: 97 97 26
Width: 384
VWidth: 0
Flags: HW
HStem: -11 54<262 351.98> -10 44<116.077 194.309> 151 30<142.013 234> 317 53<133.034 215.338>
VStem: 31 73<44.8901 128.055> 43 87<263.533 302.5> 234 69<48.5387 151 181 299.98>
LayerCount: 3
Fore
SplineSet
234 244 m 2x7a
 234 301 190 316 167 316 c 0
 150 316 138 302 136 290 c 0
 133 272 125 271 110 263 c 0
 97 256 82 251 64 251 c 0
 49 251 47 259 47 268 c 0
 47 292 72 318 116 341 c 0
 146 356 167 364 204 364 c 0
 271 364 308 327 308 266 c 0
 308 216 300 114 300 90 c 0
 300 59 316 47 336 47 c 0
 344 47 353 49 361 52 c 0
 370 56 371 47 371 34 c 0
 371 31 370 29 366 26 c 0
 348 12 308 -6 276 -6 c 0xb6
 240 -6 234 45 234 45 c 1
 212 27 160 -1 128 -1 c 0
 65 -1 31 40 31 84 c 0
 31 170 153 176 234 184 c 1
 234 244 l 2x7a
104 96 m 0
 104 69 124 41 159 41 c 0x7a
 196 41 224 65 234 75 c 1
 234 156 l 1
 180 149 104 149 104 96 c 0
EndSplineSet
EndChar

StartChar: b
Encoding: 98 98 27
Width: 446
VWidth: 0
Flags: HW
HStem: 0 45<147.593 292.594> 313 56<179.701 288.993> 657 20G<122 143.5>
VStem: 56 72<63.7847 267.708> 69 71<320.048 581.375> 345 72<114.347 255.505>
LayerCount: 3
Fore
SplineSet
148 637 m 0
 148 624 137 580 137 567 c 0
 132 410 128 309 128 309 c 1
 128 309 198 358 263 358 c 0
 345 358 413 298 413 209 c 0
 413 145 393 102 352 65 c 0
 304 21 269 11 224 6 c 0
 200 3 158 2 127 2 c 2
 107 2 l 2
 77 2 54 10 54 40 c 0xf4
 54 187 64 317 64 444 c 0
 64 476 64 505 62 536 c 0xec
 62 545 57 549 52 554 c 2
 30 575 l 2
 27 578 25 582 25 585 c 0
 25 590 29 596 34 599 c 2
 117 644 l 2
 122 647 129 650 136 650 c 0
 140 650 148 647 148 637 c 0
218 45 m 0
 304 45 342 108 342 181 c 0
 342 248 288 308 207 308 c 0
 169 308 140 292 127 281 c 1
 126 257 125 234 125 172 c 0
 125 152 125 132 128 110 c 0
 134 69 170 45 218 45 c 0
EndSplineSet
EndChar

StartChar: c
Encoding: 99 99 28
Width: 357
VWidth: 0
Flags: HW
HStem: -11 48<154.806 274.645> 319 57<150.314 247.118>
VStem: 23 80<97.477 247.257>
LayerCount: 3
Fore
SplineSet
313 40 m 0
 290 20 244 -3 194 -3 c 0
 87 -3 23 69 23 161 c 0
 23 278 129 370 241 370 c 0
 250 370 331 362 331 322 c 0
 331 300 308 278 287 278 c 0
 259 278 229 314 200 314 c 0
 133 314 106 249 106 190 c 0
 106 69 174 46 226 46 c 0
 256 46 287 62 302 74 c 0
 310 81 315 74 318 66 c 0
 322 53 324 50 313 40 c 0
EndSplineSet
EndChar

StartChar: d
Encoding: 100 100 29
Width: 450
VWidth: 0
Flags: HW
HStem: -12 57<155.83 272.382> 320 44<142.102 279.153> 654 20G<361.5 383.5>
VStem: 24 73<112.675 259.672> 316 66<61.1225 288.261 350 565.467>
LayerCount: 3
Fore
SplineSet
435 33 m 0
 435 16 435 17 422 13 c 0
 400 7 363 -4 339 -13 c 0
 331 -16 323 -19 317 -19 c 0
 310 -19 306 -15 306 -3 c 2
 307 46 l 1
 307 46 244 0 186 0 c 0
 89 0 16 83 16 172 c 0
 16 280 112 363 211 363 c 0
 268 363 312 341 312 341 c 1
 312 341 316 469 316 520 c 0
 316 551 301 554 291 560 c 2
 275 570 l 2
 267 574 264 580 264 585 c 0
 264 592 270 600 282 606 c 2
 369 653 l 2
 373 655 377 656 380 656 c 0
 388 656 394 650 394 642 c 0
 394 639 391 619 388 596 c 0
 386 582 385 572 382 533 c 0
 374 436 373 176 373 67 c 0
 373 49 378 40 388 40 c 0
 393 40 408 45 420 48 c 0
 432 51 435 48 435 33 c 0
214 324 m 0
 134 324 92 269 92 207 c 0
 92 135 131 57 218 57 c 0
 256 57 289 64 307 75 c 1
 310 272 l 1
 294 303 238 324 214 324 c 0
EndSplineSet
EndChar

StartChar: e
Encoding: 101 101 30
Width: 368
VWidth: 0
Flags: HW
HStem: -13 49<143.827 269.487> 233 29<318.281 344> 326 40<139.863 213.512>
VStem: 26 80<77.125 181 213 254.86>
DStem2: 108 213 106 181 0.978036 0.208434<0 145.198>
LayerCount: 3
Fore
SplineSet
333 72 m 0
 333 67 332 63 327 58 c 0
 299 31 248 -7 181 -7 c 0
 87 -7 26 63 26 149 c 0
 26 265 89 360 195 360 c 0
 256 360 295 314 321 262 c 1
 329 262 332 258 332 246 c 0
 332 233 329 230 316 227 c 2
 106 181 l 1
 106 181 105 173 105 162 c 0
 105 104 138 46 199 46 c 0
 255 46 289 73 307 87 c 0
 312 91 318 95 321 95 c 0
 328 95 333 82 333 72 c 0
240 248 m 1
 240 248 220 320 171 320 c 0
 118 320 108 215 108 215 c 1
 240 248 l 1
EndSplineSet
EndChar

StartChar: f
Encoding: 102 102 31
Width: 286
VWidth: 0
Flags: HW
HStem: -3 38<19.0133 57.3914> 2 43<148.054 222.997> 318 46<145 269> 321 43<18 76> 610 58<208.003 303.265>
VStem: 76 69<45.2656 318 364 528.439>
LayerCount: 3
Fore
SplineSet
147 307 m 1
 147 234 l 2
 147 180 149 105 149 66 c 0
 149 44 171 43 193 43 c 2
 206 43 l 2
 218 43 224 38 224 21 c 0
 224 10 220 3 208 3 c 2
 190 3 l 2
 102 3 54 -2 46 -2 c 0
 30 -2 20 4 20 17 c 0
 20 27 21 33 36 37 c 2
 62 44 l 2
 69 46 76 53 76 71 c 2
 79 307 l 1
 46 307 l 2
 28 307 17 308 17 326 c 0
 17 346 21 353 30 353 c 2
 79 351 l 1x9c
 79 480 96 536 167 594 c 0
 194 616 236 649 302 649 c 0
 344 649 361 628 361 602 c 0
 361 578 352 557 326 557 c 0
 303 557 276 585 246 585 c 0
 162 585 149 456 149 386 c 2
 149 351 l 1
 149 351 248 354 256 354 c 0
 271 354 272 351 272 328 c 0
 272 304 268 300 257 300 c 0
 246 300 184 305 147 307 c 1
EndSplineSet
EndChar

StartChar: g
Encoding: 103 103 32
Width: 420
VWidth: 0
Flags: HW
HStem: -279 54<100.606 269.471> -73 60<119.939 310.064> 301 52<302 406> 324 39<118.973 217.742>
VStem: -3 73<-196.353 -120.182> 21 97<-27 24.4516> 24 69<148.296 283.268> 275 66<133.08 262.406> 342 61<-173.871 -101.216>
LayerCount: 3
Fore
SplineSet
192 -213 m 0xc980
 251 -213 337 -190 337 -129 c 0
 337 -91 298 -72 237 -68 c 0
 216 -67 191 -65 167 -64 c 1
 126 -72 68 -97 68 -144 c 0
 68 -191 124 -213 192 -213 c 0xc980
396 319 m 0
 396 298 396 293 387 293 c 2
 296 294 l 1
 296 294 338 253 338 202 c 0
 338 117 268 70 208 57 c 0
 183 52 118 33 118 16 c 0xe580
 118 -6 174 -8 238 -10 c 0
 266 -11 320 -8 361 -37 c 0
 387 -55 397 -72 397 -102 c 0
 397 -153 365 -185 325 -212 c 0
 277 -244 219 -262 175 -262 c 0
 114 -262 -2 -248 -2 -160 c 0xe980
 -2 -92 116 -58 116 -58 c 1
 116 -58 22 -40 22 -4 c 0xe580
 22 42 106 50 140 56 c 1
 84 81 25 106 25 195 c 0
 25 302 113 355 183 355 c 0xd380
 215 355 240 346 257 337 c 1
 287 338 375 344 382 344 c 0xe380
 394 344 396 337 396 319 c 0
205 94 m 0
 252 94 273 141 273 181 c 0
 273 241 232 313 162 313 c 0
 121 313 93 272 93 224 c 0xd380
 93 162 128 94 205 94 c 0
EndSplineSet
EndChar

StartChar: h
Encoding: 104 104 33
Width: 500
VWidth: 0
Flags: HW
HStem: -2 33<26.0264 61.8281> 1 37<154.749 211.865 285.003 335.53 410.078 471.991> 321 45<203.654 303.941> 655 20G<135 156.5>
VStem: 78 71<42 295.375 302 535.945> 85 69<207.24 299.071 302 579.375> 339 72<37.7414 285>
LayerCount: 3
Fore
SplineSet
146 292 m 1xba
 198 345 244 355 274 355 c 0
 366 355 405 292 405 229 c 0
 405 210 403 113 403 75 c 0
 403 49 410 40 428 39 c 2
 452 38 l 2
 464 38 468 29 468 20 c 0
 468 11 464 2 454 2 c 2
 410 2 l 2
 336 2 316 0 308 0 c 0
 283 0 282 6 282 21 c 0
 282 31 290 32 292 32 c 2
 316 36 l 2
 330 39 331 48 332 82 c 0
 333 110 333 135 333 161 c 2
 333 198 l 2
 333 256 310 308 242 308 c 0
 209 308 165 292 146 266 c 1xba
 145 146 l 2
 145 102 145 69 150 51 c 0
 152 42 159 41 168 40 c 2
 193 37 l 2
 208 35 210 34 210 20 c 0
 210 7 207 4 194 4 c 2
 174 4 l 2
 122 4 59 -2 49 -2 c 0
 34 -2 26 1 26 11 c 0
 26 24 26 32 41 34 c 0
 63 36 70 57 73 90 c 0
 75 115 75 123 75 157 c 2
 75 202 l 1xba
 79 300 80 353 80 425 c 0
 80 478 79 480 78 514 c 0
 77 537 75 544 62 554 c 2
 42 569 l 2
 38 572 36 577 36 581 c 0
 36 586 39 591 43 594 c 2
 140 648 l 2
 144 650 148 651 152 651 c 0
 159 651 164 647 164 637 c 0
 164 632 159 612 156 596 c 0
 152 576 150 570 150 539 c 0xb6
 150 464 146 328 146 292 c 1xba
EndSplineSet
EndChar

StartChar: i
Encoding: 105 105 34
Width: 256
VWidth: 0
Flags: HW
HStem: -6 37<38.2045 84.4002> 2 36<158.187 226.833> 514 88<95.44 170.56>
VStem: 87 71<38.2031 297.678> 89 88<520.44 595.56>
LayerCount: 3
Fore
SplineSet
43 20 m 0
 43 30 43 33 56 36 c 0
 70 40 86 50 86 73 c 2
 87 265 l 2
 87 273 86 280 76 285 c 2
 50 299 l 2
 45 302 43 307 43 312 c 0
 43 316 45 320 48 322 c 2
 137 366 l 2
 145 370 151 372 156 372 c 0
 164 372 168 367 168 361 c 0
 168 354 159 264 159 224 c 2
 159 67 l 2
 159 52 164 44 178 44 c 2
 210 44 l 2
 220 44 220 40 220 32 c 2
 220 18 l 2
 220 12 218 10 203 10 c 0
 96 10 75 0 51 0 c 0
 47 0 43 3 43 20 c 0
88 543 m 0x28
 88 567 109 588 133 588 c 0
 157 588 178 567 178 543 c 0
 178 519 157 498 133 498 c 0
 109 498 88 519 88 543 c 0x28
EndSplineSet
EndChar

StartChar: j
Encoding: 106 106 35
Width: 226
VWidth: 0
Flags: HW
HStem: -247 49<4.5 74.3949> 516 84<88.607 161.393>
VStem: 83 84<521.607 594.393> 87 72<-93.254 297.993> 87 65<-162.107 28.3463>
LayerCount: 3
Fore
SplineSet
-44 -200 m 0xc8
 -44 -178 -28 -159 -7 -159 c 0
 18 -159 27 -191 50 -191 c 0
 75 -191 83 -155 85 -123 c 0
 87 -96 87 -68 87 -40 c 0
 87 62 83 164 81 264 c 0
 81 274 76 277 64 283 c 2
 38 295 l 2
 33 297 31 311 40 316 c 2
 142 366 l 2
 144 367 145 367 147 367 c 0
 153 367 158 362 158 350 c 0
 158 330 154 303 154 187 c 0
 154 129 155 87 155 30 c 0xd0
 155 -11 151 -64 146 -102 c 0
 136 -178 78 -242 13 -242 c 0
 -19 -242 -44 -230 -44 -200 c 0xc8
80 539 m 0xe0
 80 562 99 581 122 581 c 0
 145 581 164 562 164 539 c 0
 164 516 145 497 122 497 c 0
 99 497 80 516 80 539 c 0xe0
EndSplineSet
EndChar

StartChar: k
Encoding: 107 107 36
Width: 480
VWidth: 0
Flags: HWO
HStem: -2 21G<36 50.5> 0 36<26.0072 44 173 180 399.544 467.854> 324 36<233.026 283.988 359.769 439.997> 658 20G<135 156.5>
VStem: 78 70<44.0559 173.995 214 536.931> 85 69<214 580.111>
LayerCount: 3
Fore
SplineSet
198 35 m 2x78
 204 34 206 28 206 22 c 0
 206 15 203 7 199 7 c 0x78
 145 5 57 -1 48 -1 c 0
 34 -1 32 7 32 19 c 0
 32 31 42 34 52 38 c 0
 79 49 77 76 78 183 c 0xb8
 80 303 83 375 83 480 c 2
 83 520 l 2
 83 536 77 546 70 551 c 2
 44 570 l 2
 37 575 39 588 46 592 c 2
 137 642 l 2
 142 645 148 647 153 647 c 0
 161 647 167 643 167 634 c 0
 167 624 156 578 155 536 c 0xb4
 153 455 150 349 150 203 c 1
 250 271 l 2
 267 283 283 293 283 301 c 0
 283 306 276 310 261 313 c 2
 239 318 l 2
 234 319 235 343 243 343 c 0
 372 343 418 348 426 348 c 0
 432 348 436 345 436 331 c 0
 436 312 431 315 417 313 c 0
 351 305 282 247 208 203 c 1
 264 154 383 40 450 40 c 0
 464 40 465 38 465 24 c 2
 465 17 l 2
 465 10 464 2 458 2 c 0
 448 1 440 1 431 1 c 0
 309 1 272 60 157 168 c 1
 147 161 l 1
 148 65 l 2
 148 45 157 43 176 39 c 2
 198 35 l 2x78
EndSplineSet
EndChar

StartChar: l
Encoding: 108 108 37
Width: 243
VWidth: 0
Flags: W
HStem: -4 35<27 55> 2 36<150.725 220.987> 657 20G<135 156.5>
VStem: 70 79<40.3781 289.261> 78 71<47.9825 535.932> 85 69<190.252 580.252>
LayerCount: 3
Fore
SplineSet
217 39 m 1x70
 221 34 221 25 221 17 c 0
 221 11 219 6 217 1 c 1
 204 1 193 2 181 2 c 0x70
 126 2 76 2 28 -4 c 1
 26 1 26 8 26 15 c 0
 26 21 26 27 27 31 c 1
 55 36 l 2
 64 38 69 43 70 47 c 0xb0
 73 68 77 86 78 184 c 0xa8
 80 318 85 412 85 542 c 0
 85 582 39 588 39 601 c 0
 39 611 41 617 41 617 c 1
 80 636 118 656 152 677 c 1
 161 675 168 668 170 664 c 1
 161 612 l 2
 157 592 155 577 154 532 c 0xa4
 153 457 149 338 149 302 c 2xa8
 149 63 l 2
 149 46 175 38 180 38 c 0
 190 38 205 39 217 39 c 1x70
EndSplineSet
EndChar

StartChar: m
Encoding: 109 109 38
Width: 699
VWidth: 0
Flags: W
HStem: -2 37<27.0065 74.9333 152.756 206 255.037 304.863 376.517 432.751 492.052 540.174 615.067 678.972> 312 52<212.887 290.785 431.916 513.714>
VStem: 78 71<37.1649 283.06> 305 71<37.1812 170.257> 312 66<52.6659 286.343> 543 69<39.593 280.701>
LayerCount: 3
Fore
SplineSet
312 171 m 0xec
 312 235 312 312 242 312 c 0
 217 312 191 297 172 284 c 0
 160 275 149 269 149 244 c 0
 149 199 149 138 151 95 c 0
 153 53 148 38 172 37 c 2
 206 35 l 1
 206 32 207 29 207 26 c 0
 207 16 204 8 202 0 c 1
 177 1 151 2 123 2 c 0
 91 2 58 1 31 -2 c 1
 29 4 27 10 27 17 c 0
 27 22 28 27 29 33 c 1
 53 39 74 30 78 67 c 0
 79 78 79 88 79 103 c 2
 79 154 l 1
 78 260 l 2
 78 274 68 279 55 284 c 2
 31 294 l 1
 29 301 29 306 31 312 c 1
 70 335 102 357 136 382 c 1
 149 374 l 1
 149 374 146 320 146 285 c 1
 178 319 223 364 285 364 c 0
 327 364 353 333 368 304 c 0
 372 297 376 294 379 294 c 0
 383 294 388 298 392 304 c 0
 414 331 445 363 500 363 c 0
 577 363 613 287 613 203 c 0
 613 167 612 121 612 85 c 0
 612 42 618 41 646 38 c 2
 677 35 l 1
 679 30 679 22 679 18 c 0
 679 12 678 6 674 -1 c 1
 634 1 599 1 583 1 c 0
 551 1 497 -2 497 -2 c 1
 494 4 492 12 492 18 c 0
 492 30 493 28 495 35 c 1
 504 36 511 37 527 39 c 0
 536 40 538 43 539 48 c 0
 543 64 543 78 543 95 c 2
 543 136 l 2
 543 214 543 307 473 307 c 0
 421 307 377 285 377 245 c 0
 377 227 378 194 378 173 c 0xec
 378 137 376 89 376 60 c 0
 376 43 383 39 398 37 c 2
 433 33 l 1
 433 23 l 2
 433 14 432 7 428 -2 c 1
 414 1 366 3 341 3 c 0
 306 3 288 1 261 -2 c 1
 257 6 255 10 255 18 c 0
 255 22 256 30 258 35 c 1
 271 35 l 2
 304 35 302 36 305 51 c 0xf4
 312 86 312 156 312 171 c 0xec
EndSplineSet
EndChar

StartChar: n
Encoding: 110 110 39
Width: 481
VWidth: 0
Flags: W
HStem: 0 35<26.0087 75.1972 156.049 209.982 272.238 320.193 394.418 458.95> 302 62<216.002 304.169>
VStem: 80 73<36.8895 286.854 290 294.806> 324 70<38.2807 281.539>
LayerCount: 3
Fore
SplineSet
242 302 m 0
 201 302 167 285 151 273 c 1
 151 239 150 210 150 170 c 0
 150 134 151 112 153 77 c 0
 155 44 161 37 165 37 c 2
 207 35 l 1
 209 32 210 24 210 16 c 0
 210 10 208 1 208 1 c 1
 208 1 198 0 191 0 c 0
 184 0 129 3 121 3 c 0
 103 3 61 -3 31 -3 c 1
 29 2 26 9 26 17 c 0
 26 22 27 28 30 33 c 1
 70 39 80 30 80 102 c 2
 80 189 l 2
 80 218 79 247 78 271 c 0
 77 285 65 291 56 296 c 2
 32 308 l 1
 31 310 29 313 29 317 c 0
 29 319 30 323 32 326 c 1
 70 343 102 361 137 383 c 1
 137 383 148 379 153 373 c 1
 151 350 151 331 151 315 c 2
 151 290 l 1
 181 323 233 364 296 364 c 0
 382 364 394 289 394 202 c 0
 394 130 391 110 391 68 c 0
 391 39 417 36 439 36 c 2
 456 36 l 1
 458 32 459 25 459 19 c 0
 459 13 457 6 456 1 c 1
 366 2 l 2
 347 2 296 -1 276 -3 c 1
 272 4 272 9 272 14 c 0
 272 20 275 33 275 33 c 1
 304 35 l 2
 316 36 320 44 321 60 c 0
 323 94 324 172 324 212 c 0
 324 264 309 302 242 302 c 0
EndSplineSet
EndChar

StartChar: o
Encoding: 111 111 40
Width: 446
VWidth: 0
Flags: W
HStem: -13 40<176.415 286.741> 327 39<156.678 259.795>
VStem: 34 82<96.974 259.251> 324 82<88.5054 252.433>
LayerCount: 3
Fore
SplineSet
221 -13 m 0
 125 -13 34 55 34 168 c 0
 34 269 109 366 220 366 c 0
 327 366 406 278 406 185 c 0
 406 62 316 -13 221 -13 c 0
208 327 m 0
 148 327 116 270 116 198 c 0
 116 116 156 27 231 27 c 0
 297 27 324 80 324 151 c 0
 324 239 278 327 208 327 c 0
EndSplineSet
EndChar

StartChar: p
Encoding: 112 112 41
Width: 454
VWidth: 0
Flags: W
HStem: -276 31<25.0059 59.7733> -272 38<149.101 218.986> -8 43<163.719 310.361> 315 49<174.389 292.704>
VStem: 71 72<-228.715 3 55.4098 293.476> 357 69<96.0528 247.596>
LayerCount: 3
Fore
SplineSet
231 -8 m 0xbc
 190 -8 143 3 143 3 c 1
 145 -202 l 2
 145 -212 147 -223 149 -229 c 0
 151 -234 163 -235 176 -234 c 2
 214 -232 l 1
 214 -232 219 -243 219 -254 c 0
 219 -267 214 -274 214 -274 c 1
 141 -272 l 1x7c
 91 -272 50 -276 31 -276 c 0
 27 -276 25 -276 25 -273 c 2
 25 -261 l 2
 25 -254 26 -246 30 -245 c 0
 51 -241 71 -234 71 -181 c 0
 71 -91 70 176 69 267 c 0
 69 280 62 286 50 293 c 0
 40 299 25 307 25 307 c 1
 24 310 23 313 23 316 c 0
 23 320 24 324 25 326 c 1
 60 345 98 368 129 391 c 1
 142 384 l 1
 142 384 138 344 138 322 c 1
 153 331 202 364 261 364 c 0
 379 364 426 270 426 193 c 0
 426 63 335 -8 231 -8 c 0xbc
161 58 m 0
 177 47 204 35 234 35 c 0
 310 35 357 74 357 165 c 0
 357 236 311 315 223 315 c 0
 174 315 140 290 140 290 c 1
 140 98 l 2
 140 76 147 68 161 58 c 0
EndSplineSet
Layer: 2
SplineSet
231 -8 m 4xbc
 190 -8 143 3 143 3 c 5
 145 -202 l 6
 145 -212 147 -223 149 -229 c 4
 151 -234 163 -235 176 -234 c 6
 214 -232 l 5
 214 -232 219 -243 219 -254 c 4
 219 -267 214 -274 214 -274 c 5
 141 -272 l 5x7c
 91 -272 50 -276 31 -276 c 4
 27 -276 25 -276 25 -273 c 6
 25 -261 l 6
 25 -254 26 -246 30 -245 c 4
 51 -241 73 -234 73 -181 c 4
 73 -91 70 176 69 267 c 4
 69 280 62 286 50 293 c 4
 40 299 25 307 25 307 c 5
 24 310 23 313 23 316 c 4
 23 320 24 324 25 326 c 5
 60 345 98 368 129 391 c 5
 142 384 l 5
 142 384 138 344 138 322 c 5
 153 331 202 364 261 364 c 4
 379 364 426 270 426 193 c 4
 426 63 335 -8 231 -8 c 4xbc
161 58 m 4
 177 47 204 35 234 35 c 4
 310 35 357 74 357 165 c 4
 357 236 311 315 223 315 c 4
 174 315 140 290 140 290 c 5
 140 98 l 6
 140 76 147 68 161 58 c 4
EndSplineSet
EndChar

StartChar: q
Encoding: 113 113 42
Width: 460
VWidth: 0
Flags: W
HStem: -281 40<238.026 303.759> -272 35<242.068 306 383.13 434.939> -13 59<159.304 273.067> 322 44<148.955 282.991>
VStem: 27 77<108.607 255.658> 308 74<-234.408 26> 318 71<59.8787 288.402>
LayerCount: 3
Fore
SplineSet
397 362 m 1x7c
 392 339 389 302 389 270 c 0x7a
 384 95 382 -36 382 -205 c 0
 382 -222 382 -235 414 -235 c 0
 432 -235 435 -239 435 -251 c 0
 435 -272 431 -272 420 -272 c 2
 372 -272 l 2x7c
 335 -272 242 -281 242 -281 c 1
 242 -281 238 -272 238 -261 c 2
 238 -256 l 2
 238 -251 241 -241 241 -241 c 1xbc
 275 -240 306 -237 306 -237 c 1
 306 -237 307 -172 308 -144 c 0
 311 -72 310 17 311 26 c 1
 268 3 211 -13 188 -13 c 0
 158 -13 111 9 80 36 c 0
 40 70 27 121 27 174 c 0
 27 282 129 366 237 366 c 0
 287 366 312 350 340 335 c 1
 383 370 l 1
 388 370 395 365 397 362 c 1x7c
104 201 m 0
 104 122 145 46 226 46 c 0
 247 46 260 47 280 54 c 0
 302 62 313 64 314 73 c 0
 317 126 318 191 318 236 c 0
 318 286 268 322 220 322 c 0
 151 322 104 277 104 201 c 0
EndSplineSet
Layer: 2
SplineSet
372 -272 m 6x7c
 335 -272 242 -281 242 -281 c 5
 242 -281 238 -272 238 -261 c 6
 238 -256 l 6
 238 -251 241 -241 241 -241 c 5xbc
 275 -240 306 -237 306 -237 c 5
 306 -237 307 -172 308 -144 c 4x7c
 311 -72 310 17 311 26 c 5
 268 3 211 -13 188 -13 c 4
 158 -13 111 9 80 36 c 4
 40 70 27 121 27 174 c 4
 27 282 129 366 237 366 c 4
 287 366 312 350 340 335 c 5
 383 370 l 5
 388 370 395 365 397 362 c 5
 396 357 391 321 390 309 c 4
 389 298 389 286 389 270 c 4x7a
 384 95 380 -36 380 -205 c 4
 380 -222 382 -235 414 -235 c 4
 432 -235 435 -239 435 -251 c 4
 435 -272 431 -272 420 -272 c 6
 372 -272 l 6x7c
104 201 m 4
 104 122 145 46 226 46 c 4
 247 46 260 47 280 54 c 4
 302 62 313 64 314 73 c 4
 317 126 318 191 318 236 c 4x3a
 318 286 268 322 220 322 c 4
 151 322 104 277 104 201 c 4
EndSplineSet
EndChar

StartChar: r
Encoding: 114 114 43
Width: 332
VWidth: 0
Flags: W
HStem: -1 31<45 79.1301> 1 39<163.385 249.987> 290 80<212 290.47>
VStem: 85 72<41.9753 268.65>
LayerCount: 3
Fore
SplineSet
156 287 m 1xb0
 193 314 234 370 271 370 c 0
 300 370 316 348 316 324 c 0
 316 316 298 265 274 265 c 0
 263 265 258 270 251 276 c 0
 242 284 235 290 221 290 c 0
 203 290 184 274 172 263 c 0
 161 253 158 250 158 236 c 0
 158 192 157 152 157 109 c 0
 157 73 161 40 189 40 c 2
 245 41 l 1
 249 36 250 27 250 19 c 0
 250 11 248 3 244 0 c 1
 244 0 183 1 167 1 c 0x70
 160 1 98 -1 76 -1 c 2
 48 -1 l 1
 48 -1 44 -1 44 17 c 0
 44 23 45 30 45 30 c 1
 84 45 85 35 85 98 c 2
 85 139 l 2
 85 187 86 223 86 268 c 0
 86 282 67 287 54 293 c 2
 44 297 l 1
 42 301 41 305 41 309 c 0
 41 313 42 317 44 320 c 1
 75 337 119 364 149 385 c 1
 163 377 l 1
 163 377 156 329 156 287 c 1xb0
EndSplineSet
EndChar

StartChar: s
Encoding: 115 115 44
Width: 318
VWidth: 0
Flags: W
HStem: -12 38<103.407 199.214> 331 41<113.755 209.497>
VStem: 32 31<116 120.948> 42 64<247.538 322.484> 215 71<40.1604 128.432>
LayerCount: 3
Fore
SplineSet
151 26 m 0xe8
 187 26 215 50 215 82 c 0
 215 175 42 148 42 276 c 0
 42 340 122 372 183 372 c 0
 205 372 230 367 248 359 c 0
 254 356 256 355 257 349 c 0
 260 322 270 273 270 270 c 0
 270 263 259 261 252 261 c 0
 247 261 244 264 241 268 c 0
 233 280 220 299 207 314 c 0
 197 326 179 331 162 331 c 0
 136 331 106 317 106 291 c 0xd8
 106 235 177 223 230 194 c 0
 262 176 286 149 286 98 c 0
 286 27 214 -12 145 -12 c 0
 126 -12 99 -10 80 -7 c 0
 38 0 32 -2 32 22 c 2
 32 116 l 1
 37 119 43 121 49 121 c 0
 54 121 59 120 63 116 c 1
 80 80 l 2
 90 59 106 26 151 26 c 0xe8
EndSplineSet
Layer: 2
SplineSet
151 26 m 4xe8
 187 26 215 50 215 82 c 4
 215 175 42 148 42 276 c 4
 42 340 122 372 183 372 c 4
 205 372 230 367 248 359 c 4
 254 356 256 355 257 349 c 4
 260 322 268 273 268 270 c 4
 268 263 257 261 250 261 c 4
 245 261 242 264 239 268 c 4
 231 280 220 299 207 314 c 4
 197 326 179 331 162 331 c 4
 136 331 106 317 106 291 c 4xd8
 106 235 177 223 230 194 c 4
 262 176 286 149 286 98 c 4
 286 27 214 -12 145 -12 c 4
 126 -12 99 -10 80 -7 c 4
 38 0 32 -2 32 22 c 6
 32 116 l 5
 37 119 43 121 49 121 c 4
 54 121 59 120 63 116 c 5
 80 80 l 6
 90 59 106 26 151 26 c 4xe8
EndSplineSet
EndChar

StartChar: t
Encoding: 116 116 45
Width: 308
VWidth: 0
Flags: W
HStem: -12 59<162.188 234.235> 312 56<152 278.948> 314 47<152 277>
VStem: 72 75<58.8008 307.867> 80 71<106.964 308>
LayerCount: 3
Fore
SplineSet
29 342 m 1xa8
 73 376 104 408 142 448 c 1
 160 442 l 1
 160 442 153 384 152 361 c 1xa8
 277 368 l 5
 277 368 279 361 279 342 c 6
 279 337 l 6
 279 323 276 312 276 312 c 5xc8
 151 314 l 1xa8
 151 314 147 188 147 144 c 0
 147 95 153 47 202 47 c 0
 238 47 273 76 273 76 c 1
 282 44 l 1
 253 20 210 -12 173 -12 c 0
 102 -12 72 44 72 106 c 0xb0
 72 124 80 308 80 308 c 1
 36 308 l 1
 30 315 29 322 29 331 c 2
 29 342 l 1xa8
EndSplineSet
Layer: 2
SplineSet
29 342 m 5xa8
 38 349 l 5
 78 383 106 410 142 448 c 5
 160 442 l 5
 160 442 153 384 152 361 c 5xa8
 277 368 l 5
 277 368 279 361 279 342 c 6
 279 337 l 6
 279 323 276 312 276 312 c 5xc8
 151 314 l 5xa8
 151 314 146 188 146 144 c 4
 146 95 151 47 200 47 c 4
 236 47 273 77 273 77 c 5
 282 48 l 5
 262 26 214 -12 171 -12 c 4
 100 -12 71 44 71 106 c 4xb0
 71 124 80 308 80 308 c 5
 36 308 l 5
 30 315 29 322 29 331 c 6
 29 342 l 5xa8
EndSplineSet
EndChar

StartChar: u
Encoding: 117 117 46
Width: 468
VWidth: 0
Flags: HW
HStem: -9 60<158.819 244.943> 328 24<263 293.411> 350 20G<27.4286 148 263 387>
VStem: 62 77<71.3661 317.35> 309 70<54.9688 57 76.9766 318.375>
LayerCount: 3
Fore
SplineSet
22 349 m 1xb8
 58 356 136 370 136 370 c 1xb8
 148 359 l 1
 148 359 142 307 141 282 c 0
 140 240 139 158 139 151 c 0
 139 84 160 51 210 51 c 0
 254 51 306 89 306 89 c 1
 307 155 310 224 310 290 c 0
 310 317 290 318 263 328 c 1
 263 352 l 1xd8
 299 357 375 370 375 370 c 1
 387 359 l 1
 387 359 382 280 382 271 c 0
 380 237 379 213 379 189 c 2
 379 65 l 2
 379 48 388 51 394 53 c 2
 443 67 l 1
 450 61 l 1
 450 30 l 1
 408 19 362 5 322 -11 c 1
 309 0 l 1
 309 57 l 1
 309 57 240 -9 168 -9 c 0
 108 -9 62 40 62 102 c 0
 62 174 68 270 68 283 c 0
 68 313 45 317 22 324 c 1
 22 349 l 1xb8
EndSplineSet
EndChar

StartChar: v
Encoding: 118 118 47
Width: 408
VWidth: 0
Flags: W
HStem: -15 21G<179 186.5> 322 36<15.0192 44.5443 122.001 181.999 261.052 307.967>
VStem: 308 83<297.5 346.5>
DStem2: 130 282 50 293 0.336014 -0.941857<-28.6586 196.42> 209 97 218 28 0.455476 0.890248<0 228.017>
LayerCount: 3
Fore
SplineSet
179 322 m 1
 133 322 l 2
 124 322 122 316 122 310 c 0
 122 301 128 288 130 282 c 2
 196 97 l 2
 202 80 202 84 209 97 c 2
 289 255 l 2
 299 275 308 292 308 303 c 0
 308 322 297 322 265 322 c 1
 265 322 261 330 261 342 c 0
 261 355 264 358 264 358 c 1
 264 358 308 357 327 357 c 0
 344 357 389 359 389 359 c 1
 389 359 391 351 391 342 c 0
 391 315 380 345 353 292 c 2
 218 28 l 2
 210 12 205 -2 199 -9 c 0
 196 -13 190 -15 183 -15 c 0
 175 -15 167 -13 164 -8 c 0
 157 3 148 24 141 47 c 0
 118 114 68 246 50 293 c 0
 45 306 37 319 18 323 c 1
 18 323 15 333 15 338 c 0
 15 354 18 358 18 358 c 1
 18 358 74 356 100 356 c 0
 136 356 179 358 179 358 c 1
 181 354 182 347 182 340 c 0
 182 334 181 327 179 322 c 1
EndSplineSet
EndChar

StartChar: w
Encoding: 119 119 48
Width: 582
VWidth: 0
Flags: W
HStem: -15 21G<162 185 359 378.5> 322 36<126.003 188.988 426.21 472.681>
VStem: 473 88<294.5 348.5>
DStem2: 142 248 49 302 0.317969 -0.948101<-60.349 151.444> 200 122 205 26 0.343274 0.939235<-18.6776 125.612> 329 308 283 212 0.31115 -0.950361<59.5711 202.236> 400 111 405 27 0.384208 0.923246<0 201.227>
LayerCount: 3
Fore
SplineSet
205 26 m 2
 194 -4 196 -15 174 -15 c 0
 150 -15 150 7 137 47 c 0
 108 132 80 226 49 302 c 0
 44 315 22 325 22 325 c 1
 22 325 17 338 17 346 c 0
 17 353 20 360 20 360 c 1
 20 360 70 358 88 358 c 0
 134 358 185 361 185 361 c 1
 188 355 189 345 189 339 c 0
 189 333 188 329 187 322 c 1
 137 322 l 2
 130 322 126 315 126 307 c 0
 126 292 136 266 142 248 c 0
 155 207 168 168 184 122 c 0
 188 110 190 105 192 105 c 0
 194 105 196 110 200 122 c 2
 272 319 l 2
 278 336 276 355 300 355 c 0
 328 355 324 331 329 308 c 0
 343 244 366 172 387 111 c 0
 394 92 393 93 400 111 c 2
 467 272 l 2
 470 280 473 290 473 299 c 0
 473 307 471 315 464 318 c 0
 460 320 430 321 430 321 c 1
 430 321 427 330 426 342 c 0
 425 352 428 360 428 360 c 1
 428 360 470 358 488 358 c 0
 512 358 559 360 559 360 c 1
 559 360 561 354 561 343 c 0
 561 325 555 329 541 313 c 1
 530 302 512 269 508 261 c 0
 472 186 430 86 405 27 c 0
 393 -2 390 -15 367 -15 c 0
 351 -15 342 16 328 60 c 0
 311 113 298 168 283 212 c 0
 279 222 278 228 276 228 c 0
 274 228 273 222 269 212 c 2
 205 26 l 2
EndSplineSet
EndChar

StartChar: x
Encoding: 120 120 49
Width: 398
VWidth: 0
Flags: W
HStem: 2 32<115.161 151.989 202.001 238.994 321.753 371.944> 325 34<156.003 188.965 241.049 277.99>
VStem: 278 89<307 345.5>
DStem2: 163 170 156 119 0.67199 0.74056<-118.924 -7.02161 63.6333 180.746> 207 216 163 170 0.552293 -0.83365<-107.761 0 42.8913 159.991>
LayerCount: 3
Fore
SplineSet
170 276 m 2
 207 216 l 1
 265 285 l 2
 274 296 278 304 278 310 c 0
 278 321 264 324 245 326 c 1
 245 326 241 333 241 344 c 0
 241 352 243 359 243 359 c 1
 243 359 284 357 298 357 c 0
 332 357 365 359 365 359 c 1
 365 359 367 351 367 340 c 0
 367 322 350 328 336 312 c 2
 224 189 l 1
 289 93 l 2
 305 70 327 36 345 34 c 0
 352 33 369 32 369 32 c 1
 369 32 372 25 372 16 c 0
 372 5 367 -2 367 -2 c 1
 367 -2 321 2 284 2 c 0
 266 2 224 -1 208 -2 c 1
 204 3 202 11 202 18 c 0
 202 24 203 28 206 32 c 1
 231 33 239 37 239 45 c 0
 239 51 235 58 229 67 c 2
 179 146 l 1
 156 119 l 2
 146 107 115 72 115 52 c 0
 115 34 140 32 150 31 c 1
 151 26 152 23 152 17 c 0
 152 12 151 6 150 0 c 1
 112 2 88 2 74 2 c 0
 56 2 38 1 22 -1 c 1
 22 -1 18 11 18 17 c 0
 18 22 19 27 22 32 c 1
 39 37 55 54 69 69 c 2
 163 170 l 1
 123 232 126 234 70 307 c 0
 62 318 38 325 38 325 c 1
 38 325 34 336 34 344 c 0
 34 351 37 359 37 359 c 1
 37 359 68 357 108 357 c 0
 123 357 186 359 186 359 c 1
 189 353 189 344 189 338 c 0
 189 332 188 332 187 325 c 1
 172 325 l 2
 160 325 156 320 156 312 c 0
 156 301 165 285 170 276 c 2
EndSplineSet
EndChar

StartChar: y
Encoding: 121 121 50
Width: 406
VWidth: 0
Flags: W
HStem: 325 34<15.0503 43.7598 119.005 181.989 258.266 305.725>
VStem: 306 86<296.5 351.952>
DStem2: 96 -105 80 -231 0.459854 0.887994<-107.417 125.334 214.8 457.523>
LayerCount: 3
Fore
SplineSet
261 359 m 1
 261 359 312 358 326 358 c 0
 337 358 390 360 390 360 c 1
 390 358 392 352 392 344 c 0
 392 334 391 330 385 326 c 0
 364 314 355 303 341 273 c 0
 276 134 199 4 129 -135 c 2
 80 -231 l 2
 76 -239 73 -243 66 -243 c 0
 56 -243 13 -229 13 -214 c 0
 13 -209 23 -199 36 -186 c 0
 58 -164 68 -153 96 -105 c 2
 160 3 l 1
 103 151 l 2
 78 216 58 281 44 314 c 0
 39 324 26 326 18 328 c 1
 15 334 15 341 15 346 c 0
 15 355 17 357 18 361 c 1
 18 361 84 359 100 359 c 0
 118 359 179 360 179 360 c 1
 179 360 182 357 182 341 c 0
 182 325 178 325 178 325 c 1
 133 325 l 2
 126 325 119 320 119 314 c 0
 119 295 178 149 202 82 c 1
 299 273 l 2
 302 279 306 291 306 302 c 0
 306 326 296 324 262 325 c 1
 260 332 258 340 258 346 c 0
 258 351 259 355 261 359 c 1
EndSplineSet
EndChar

StartChar: z
Encoding: 122 122 51
Width: 378
VWidth: 0
Flags: W
HStem: -1 44<137 286.351> 320 36<118.248 262>
VStem: 37 317
LayerCount: 3
Fore
SplineSet
336 356 m 1
 343 353 348 348 350 337 c 1
 286 243 191 135 137 43 c 1
 192 43 l 2
 208 43 248 43 266 49 c 0
 273 51 278 55 284 62 c 0
 300 81 332 112 332 112 c 1
 342 111 354 98 354 98 c 1
 314 -1 l 1
 306 -1 l 2
 280 -1 243 2 220 2 c 0
 185 2 96 1 54 -1 c 0
 44 -1 37 14 37 31 c 0
 37 37 39 39 45 47 c 0
 112 137 188 223 262 320 c 1
 216 320 l 2
 146 320 123 317 118 313 c 0
 108 305 96 267 90 251 c 1
 83 247 71 248 66 251 c 1
 56 284 53 309 48 341 c 1
 51 347 60 358 67 361 c 1
 157 356 224 356 336 356 c 1
EndSplineSet
EndChar

StartChar: zero
Encoding: 48 48 53
Width: 470
VWidth: 0
Flags: W
HStem: -10 40<190.154 297.18> 329 39<166.595 268.35>
VStem: 47 78<105.114 263.684> 336 82<91.6855 251.872>
LayerCount: 3
Fore
SplineSet
418 178 m 0
 418 72 329 -10 231 -10 c 0
 134 -10 47 58 47 168 c 0
 47 278 122 368 234 368 c 0
 343 368 418 276 418 178 c 0
218 329 m 0
 156 329 125 264 125 202 c 0
 125 126 168 30 241 30 c 0
 313 30 336 97 336 163 c 0
 336 235 287 329 218 329 c 0
EndSplineSet
EndChar

StartChar: seven
Encoding: 55 55 54
Width: 424
VWidth: 0
Flags: W
HStem: 275 73<80.1576 322>
VStem: 39 33<351.916 400.842>
LayerCount: 3
Fore
SplineSet
85 358 m 0
 90 349 89 348 104 348 c 2
 310 348 l 2
 332 348 367 352 376 352 c 0
 386 352 392 337 392 327 c 0
 392 315 365 271 357 254 c 0
 281 90 196 -64 113 -221 c 1
 102 -223 92 -224 83 -224 c 0
 74 -224 66 -223 56 -222 c 1
 50 -217 50 -213 48 -206 c 1
 130 -95 201 32 265 162 c 2
 308 250 l 2
 312 258 322 280 322 280 c 1
 271 280 187 278 99 275 c 0
 74 274 87 234 61 234 c 0
 50 234 43 244 43 257 c 0
 43 278 45 296 45 313 c 0
 45 330 39 367 39 386 c 0
 39 395 49 401 58 401 c 0
 64 401 69 399 72 392 c 0
 76 382 80 367 85 358 c 0
EndSplineSet
EndChar

StartChar: eight
Encoding: 56 56 55
Width: 496
VWidth: 0
Flags: W
HStem: -12 41<186.176 311.12> 552 36<204.505 305.515>
VStem: 59 80<77.8598 221.882> 97 75<398.566 512.544> 337 66<392.247 525.841> 354 76<87.2566 202.78>
LayerCount: 3
Fore
SplineSet
430 171 m 0xc4
 430 68 342 -12 236 -12 c 0
 177 -12 124 29 98 54 c 0
 70 81 59 130 59 162 c 0xe4
 59 245 179 300 188 304 c 1
 188 304 97 350 97 449 c 0
 97 525 185 588 257 588 c 0
 331 588 403 544 403 463 c 0xd8
 403 380 345 358 292 331 c 1
 354 305 430 262 430 171 c 0xc4
215 287 m 1
 215 287 139 240 139 151 c 0
 139 89 181 29 242 29 c 0
 304 29 354 66 354 137 c 0
 354 237 215 287 215 287 c 1
172 456 m 0xd8
 172 401 213 376 262 348 c 1
 262 348 337 374 337 465 c 0
 337 509 309 552 256 552 c 0
 198 552 172 504 172 456 c 0xd8
EndSplineSet
EndChar

StartChar: nine
Encoding: 57 57 56
Width: 470
VWidth: 0
Flags: W
HStem: -7 39<185.648 297.736> 331 37<170.805 273.114>
VStem: 47 79<102.492 264.179> 336 81<64.8131 259.612>
LayerCount: 3
Fore
SplineSet
218 331 m 0
 160 331 126 264 126 202 c 0
 126 127 164 32 237 32 c 0
 326 32 336 98 336 162 c 0
 336 256 291 331 218 331 c 0
307 16 m 1
 276 2 245 -7 223 -7 c 0
 117 -7 47 70 47 168 c 0
 47 279 122 368 234 368 c 0
 353 368 417 269 417 154 c 0
 417 127 411 99 403 72 c 0
 361 -69 236 -167 94 -217 c 1
 86 -214 80 -199 80 -187 c 1
 178 -130 248 -87 307 16 c 1
EndSplineSet
EndChar

StartChar: R.001
Encoding: 65536 -1 57
Width: 671
VWidth: 0
Flags: W
HStem: -10 21G<572 650.5> -4 36<25.2043 68.375 186.906 250.868> 260 39<178 288.977> 584 33<43.1121 96.125> 589 39<47.049 97.5404 118.72 325.575>
VStem: 92 86<40.1758 260 299 323.125> 101 86<308.395 583.301> 395 95<365.296 520.704>
LayerCount: 3
Fore
SplineSet
101 555 m 0x63
 101 569 92.1107702763 584 74 584 c 2
 49 584 l 1
 46 589 43 595 43 603 c 0
 43 607 44 612 47 617 c 1x73
 47 617 114 628 239 628 c 0
 339 628 490 585 490 448 c 0
 490 372 459 342 384 292 c 0
 375 286 372 283 372 279 c 0
 372 274 376 269 381 257 c 0
 419 156 537 59 589 41 c 2
 653 19 l 1
 654 16 655 12 655 9 c 0
 655 2 652 -5 649 -10 c 1
 642 -10 l 2xab
 502 -10 343 83 291 238 c 0
 286 255 281 260 261 260 c 0
 253 260 238 259 230 259 c 0
 194 259 176 260 176 260 c 1
 177 203 177 146 178 88 c 0
 179 63 181 44 208 37 c 0
 219 34 234 33 247 32 c 1
 250 28 251 22 251 17 c 0
 251 10 249 2 246 -4 c 1
 246 -4 181 2 140 2 c 0
 92 2 82 0 30 -3 c 1
 27 4 25 10 25 18 c 0
 25 24 26 29 29 35 c 1
 74 40 l 2
 87 41 92 60 92 74 c 0x65
 97 253 101 399 101 555 c 0x63
395 441 m 0
 395 510 346 589 257 589 c 0
 229 589 199 587 193 576 c 0
 189 570 188 556 187 544 c 0x2b
 179 469 178 384 178 299 c 1x2d
 211 299 l 2
 248 299 288 300 318 312 c 0
 366 331 395 388 395 441 c 0
EndSplineSet
EndChar

StartChar: T.001
Encoding: 65537 -1 58
Width: 674
VWidth: 0
Flags: W
HStem: -4 45<196.053 286.865 385.288 476.328> 581 48<91.3708 295.99 391.788 584.876> 651 20G<71 77 632 638>
VStem: 21 30<510.11 549.106> 61 32<647.281 670.736> 293 88<45.6189 576.762> 594 29<501.485 565.561>
LayerCount: 3
Fore
SplineSet
470 -3 m 1
 470 -3 389 1 327 1 c 0
 297 1 246 -5 231 -5 c 0
 221 -5 212 -5 202 -4 c 1
 198 4 196 12 196 20 c 0
 196 27 197 34 201 41 c 1
 252 42 l 2
 290 43 292 61 293 135 c 2
 296 561 l 2
 296 575 282 581 265 581 c 2
 145 581 l 2
 115 581 84 580 72 561 c 0
 63 546 51 513 51 513 c 1
 46 512 44 510 38 510 c 0
 31 510 27 513 21 520 c 1
 22 531 21 538 25 550 c 0
 36 586 47 635 61 668 c 1
 65 670 69 671 73 671 c 0
 81 671 88 668 93 664 c 1
 93 659 91 653 91 647 c 0
 91 638 93 629 105 629 c 0
 272 629 317 623 455 623 c 0
 485 623 520 624 562 625 c 0
 602 626 610 634 616 646 c 0
 620 654 624 667 624 667 c 1
 627 668 630 669 634 669 c 0
 642 669 650 666 655 662 c 1
 647 621 633 550 623 503 c 1
 616 499 601 500 594 504 c 1
 591 524 596 557 586 566 c 1
 562 578 540 580 486 580 c 2
 430 580 l 2
 413 580 408 580 391 577 c 1
 386 572 381 562 381 553 c 2
 381 117 l 1
 382 33 386 42 474 40 c 1
 476 36 477 31 477 26 c 0
 477 15 473 2 470 -3 c 1
EndSplineSet
EndChar

StartChar: period
Encoding: 46 46 59
Width: 232
VWidth: 0
Flags: W
HStem: -9 112<73.9218 162.078>
VStem: 62 112<2.92178 91.0782>
LayerCount: 3
Fore
SplineSet
62 47 m 0
 62 78 87 103 118 103 c 0
 149 103 174 78 174 47 c 0
 174 16 149 -9 118 -9 c 0
 87 -9 62 16 62 47 c 0
EndSplineSet
EndChar

StartChar: colon
Encoding: 58 58 60
Width: 232
VWidth: 0
Flags: W
HStem: -9 112<73.9218 162.078> 257 112<73.9218 162.078>
VStem: 62 112<2.92178 91.0782 268.922 357.078>
LayerCount: 3
Fore
SplineSet
62 313 m 0
 62 344 87 369 118 369 c 0
 149 369 174 344 174 313 c 0
 174 282 149 257 118 257 c 0
 87 257 62 282 62 313 c 0
62 47 m 0
 62 78 87 103 118 103 c 0
 149 103 174 78 174 47 c 0
 174 16 149 -9 118 -9 c 0
 87 -9 62 16 62 47 c 0
EndSplineSet
EndChar

StartChar: semicolon
Encoding: 59 59 61
Width: 232
VWidth: 0
Flags: W
HStem: 3 98<66.104 131.674> 257 112<73.9218 162.078>
VStem: 62 112<268.922 357.078> 137 47<-67.1177 47>
LayerCount: 3
Fore
SplineSet
62 313 m 0xe0
 62 344 87 369 118 369 c 0
 149 369 174 344 174 313 c 0
 174 282 149 257 118 257 c 0
 87 257 62 282 62 313 c 0xe0
55 47 m 0
 55 78 80 101 111 101 c 0
 142 101 184 76 184 18 c 0
 184 -76 120 -122 72 -160 c 0
 70 -161 66 -162 64 -162 c 0
 62 -162 45 -154 45 -140 c 0
 45 -138 50 -132 54 -129 c 0
 80 -112 135 -59 137 -22 c 0xd0
 137 -15 137 -8 132 -2 c 0
 125 8 121 3 106 3 c 0
 86 3 55 11 55 47 c 0
EndSplineSet
EndChar

StartChar: comma
Encoding: 44 44 62
Width: 232
VWidth: 0
Flags: W
HStem: 3 98<66.104 131.674>
VStem: 137 47<-67.1177 47>
LayerCount: 3
Fore
SplineSet
55 47 m 0
 55 78 80 101 111 101 c 0
 142 101 184 76 184 18 c 0
 184 -76 120 -122 72 -160 c 0
 70 -161 66 -162 64 -162 c 0
 62 -162 45 -154 45 -140 c 0
 45 -138 50 -132 54 -129 c 0
 80 -112 135 -59 137 -22 c 0
 137 -15 137 -8 132 -2 c 0
 125 8 121 3 106 3 c 0
 86 3 55 11 55 47 c 0
EndSplineSet
EndChar

StartChar: hyphen
Encoding: 45 45 63
Width: 206
VWidth: 0
Flags: W
HStem: 139 67<20 184>
VStem: 20 164<139 206>
LayerCount: 3
Fore
SplineSet
42 206 m 2
 164 206 l 2
 177 206 184 202 184 189 c 2
 184 159 l 2
 184 145 181 139 167 139 c 2
 42 139 l 2
 28 139 20 141 20 155 c 2
 20 188 l 2
 20 203 27 206 42 206 c 2
EndSplineSet
EndChar

StartChar: exclam
Encoding: 33 33 64
Width: 261
VWidth: 0
Flags: W
HStem: -9 112<98.9218 187.078>
VStem: 87 112<2.92178 91.0782> 97 107<443.784 621.419> 129 34<184.104 392.768>
LayerCount: 3
Fore
SplineSet
129 194 m 0x90
 123 296 125 399 109 493 c 0
 105 518 97 537 97 568 c 0
 97 603 117 634 152 634 c 0
 183 634 204 603 204 572 c 0xa0
 204 542 197 518 192 495 c 0
 174 404 166 335 163 193 c 0
 163 187 156 184 148 184 c 0
 140 184 129 188 129 194 c 0x90
87 47 m 0xc0
 87 78 112 103 143 103 c 0
 174 103 199 78 199 47 c 0
 199 16 174 -9 143 -9 c 0
 112 -9 87 16 87 47 c 0xc0
EndSplineSet
EndChar

StartChar: parenleft
Encoding: 40 40 65
Width: 318
VWidth: 0
Flags: W
VStem: 57 87<71.9062 368.253>
LayerCount: 3
Fore
SplineSet
57 228 m 0
 57 454 232 637 232 637 c 1
 247 632 249 628 258 617 c 1
 258 617 144 505 144 230 c 0
 144 -7 191 -92 244 -175 c 1
 237 -186 230 -189 217 -194 c 1
 146 -116 57 47 57 228 c 0
EndSplineSet
EndChar

StartChar: parenright
Encoding: 41 41 66
Width: 318
VWidth: 0
Flags: W
VStem: 171 87<74.7468 371.094>
LayerCount: 3
Fore
SplineSet
258 215 m 0
 258 -11 83 -194 83 -194 c 1
 68 -189 66 -185 57 -174 c 1
 57 -174 171 -62 171 213 c 0
 171 450 124 535 71 618 c 1
 78 629 85 632 98 637 c 1
 169 559 258 396 258 215 c 0
EndSplineSet
EndChar

StartChar: question
Encoding: 63 63 67
Width: 394
VWidth: 0
Flags: W
HStem: -9 112<126.922 215.078> 597 32<143.628 252.668>
VStem: 61 69<493.995 574.579> 115 112<2.92178 91.0782> 132 40<185.938 280.378> 297 65<434.486 557.964>
LayerCount: 3
Fore
SplineSet
201 597 m 0xec
 169 597 130 588 130 552 c 0
 130 516 164 534 164 513 c 0
 164 488 120 472 93 472 c 0
 73 472 61 492 61 514 c 0
 61 578 123 629 204 629 c 0
 298 629 362 566 362 476 c 0
 362 317 172 321 172 244 c 0
 172 224 173 220 177 192 c 0
 178 184 169 179 161 179 c 0
 156 179 151 181 148 185 c 0
 136 205 132 225 132 256 c 0
 132 368 220 384 266 424 c 0
 285 441 297 467 297 508 c 0
 297 554 252 597 201 597 c 0xec
115 47 m 0xd4
 115 78 140 103 171 103 c 0
 202 103 227 78 227 47 c 0
 227 16 202 -9 171 -9 c 0
 140 -9 115 16 115 47 c 0xd4
EndSplineSet
EndChar

StartChar: quotedblright
Encoding: 8221 8221 68
Width: 444
VWidth: 0
Flags: W
HStem: 366 21G<85 87 281 283> 531 98<88.104 153.674 284.104 349.674>
VStem: 159 47<460.882 575> 355 47<460.882 575>
LayerCount: 3
Fore
SplineSet
273 575 m 0
 273 606 298 629 329 629 c 0
 360 629 402 604 402 546 c 0
 402 452 338 406 290 368 c 0
 288 367 284 366 282 366 c 0
 280 366 263 374 263 388 c 0
 263 390 268 396 272 399 c 0
 298 416 353 469 355 506 c 0
 355 513 355 520 350 526 c 0
 343 536 339 531 324 531 c 0
 304 531 273 539 273 575 c 0
77 575 m 0
 77 606 102 629 133 629 c 0
 164 629 206 604 206 546 c 0
 206 452 142 406 94 368 c 0
 92 367 88 366 86 366 c 0
 84 366 67 374 67 388 c 0
 67 390 72 396 76 399 c 0
 102 416 157 469 159 506 c 0
 159 513 159 520 154 526 c 0
 147 536 143 531 128 531 c 0
 108 531 77 539 77 575 c 0
EndSplineSet
EndChar

StartChar: quotedblleft
Encoding: 8220 8220 69
Width: 444
VWidth: 0
Flags: W
HStem: 366 98<119.326 184.896 315.326 380.896>
VStem: 67 47<420 534.118> 263 47<420 534.118>
LayerCount: 3
Fore
SplineSet
196 420 m 4
 196 389 171 366 140 366 c 4
 109 366 67 391 67 449 c 4
 67 543 131 589 179 627 c 4
 181 628 185 629 187 629 c 4
 189 629 206 621 206 607 c 4
 206 605 201 599 197 596 c 4
 171 579 116 526 114 489 c 4
 114 482 114 475 119 469 c 4
 126 459 130 464 145 464 c 4
 165 464 196 456 196 420 c 4
392 420 m 4
 392 389 367 366 336 366 c 4
 305 366 263 391 263 449 c 4
 263 543 327 589 375 627 c 4
 377 628 381 629 383 629 c 4
 385 629 402 621 402 607 c 4
 402 605 397 599 393 596 c 4
 367 579 312 526 310 489 c 4
 310 482 310 475 315 469 c 4
 322 459 326 464 341 464 c 4
 361 464 392 456 392 420 c 4
EndSplineSet
EndChar

StartChar: quoteright
Encoding: 8217 8217 70
Width: 272
VWidth: 0
Flags: W
HStem: 366 21G<85 87> 531 98<88.104 153.674>
VStem: 159 47<460.882 575>
LayerCount: 3
Fore
SplineSet
77 575 m 0
 77 606 102 629 133 629 c 0
 164 629 206 604 206 546 c 0
 206 452 142 406 94 368 c 0
 92 367 88 366 86 366 c 0
 84 366 67 374 67 388 c 0
 67 390 72 396 76 399 c 0
 102 416 157 469 159 506 c 0
 159 513 159 520 154 526 c 0
 147 536 143 531 128 531 c 0
 108 531 77 539 77 575 c 0
EndSplineSet
EndChar

StartChar: quoteleft
Encoding: 8216 8216 71
Width: 272
VWidth: 0
Flags: W
HStem: 366 98<119.326 184.896>
VStem: 67 47<420 534.118>
LayerCount: 3
Fore
SplineSet
196 420 m 0
 196 389 171 366 140 366 c 0
 109 366 67 391 67 449 c 0
 67 543 131 589 179 627 c 0
 181 628 185 629 187 629 c 0
 189 629 206 621 206 607 c 0
 206 605 201 599 197 596 c 0
 171 579 116 526 114 489 c 0
 114 482 114 475 119 469 c 0
 126 459 130 464 145 464 c 0
 165 464 196 456 196 420 c 0
EndSplineSet
EndChar

StartChar: endash
Encoding: 8211 8211 72
Width: 399
VWidth: 0
Flags: W
HStem: 144 62<20 377>
LayerCount: 3
Fore
SplineSet
42 206 m 2
 357 206 l 2
 370 206 377 202 377 189 c 2
 377 164 l 2
 377 150 374 144 360 144 c 2
 42 144 l 2
 28 144 20 146 20 160 c 2
 20 188 l 2
 20 203 27 206 42 206 c 2
EndSplineSet
EndChar

StartChar: emdash
Encoding: 8212 8212 73
Width: 669
VWidth: 0
Flags: W
HStem: 144 62<20 647>
LayerCount: 3
Fore
SplineSet
42 206 m 2
 627 206 l 2
 640 206 647 202 647 189 c 2
 647 164 l 2
 647 150 644 144 630 144 c 2
 42 144 l 2
 28 144 20 146 20 160 c 2
 20 188 l 2
 20 203 27 206 42 206 c 2
EndSplineSet
EndChar

StartChar: bracketleft
Encoding: 91 91 74
Width: 308
VWidth: 0
Flags: W
HStem: -175 40<129.001 244.988> 593 34<140 252.828>
VStem: 57 72<-135 182.31>
LayerCount: 3
Fore
SplineSet
93 627 m 0
 143 627 199 630 248 631 c 1
 251 627 253 620 253 613 c 0
 253 607 251 600 249 594 c 1
 140 593 l 1
 140 593 130 280 130 189 c 0
 130 46 129 -80 129 -123 c 0
 129 -135 131 -135 138 -135 c 2
 241 -135 l 1
 244 -142 245 -149 245 -156 c 0
 245 -162 244 -168 242 -175 c 1
 211 -175 l 2
 153 -175 106 -177 89 -177 c 0
 66 -177 57 -176 57 -159 c 2
 70 606 l 2
 70 625 75 627 93 627 c 0
EndSplineSet
EndChar

StartChar: bracketright
Encoding: 93 93 75
Width: 308
VWidth: 0
Flags: W
HStem: -176 37<54.0193 169> 589 41<70.003 184.999>
VStem: 169 71<-139 98.1384> 185 68<352.605 589>
LayerCount: 3
Fore
SplineSet
169 -139 m 1xe0
 172 -37 185 399 185 577 c 0
 185 589 183 589 176 589 c 2
 74 589 l 1
 71 596 70 603 70 610 c 0
 70 616 71 623 73 630 c 1
 86 630 131 629 146 629 c 0
 168 629 215 630 226 630 c 0
 238 630 253 628 253 611 c 2xd0
 240 -152 l 2
 240 -171 235 -176 217 -176 c 0
 167 -176 108 -178 59 -179 c 1
 55 -174 54 -167 54 -159 c 0
 54 -152 55 -144 57 -139 c 1
 169 -139 l 1xe0
EndSplineSet
EndChar

StartChar: Q_u
Encoding: 65538 -1 76
Width: 1182
VWidth: 0
Flags: W
HStem: -285 53<718.937 1008.5> -9 60<866.819 952.943> 328 24<971 1001.41> 350 20G<735.429 856 971 1095> 582 46<279.36 444.945>
VStem: 36 105<181.888 414.828> 591 100<191.562 411.845> 770 77<71.3661 317.35> 1017 70<54.9688 57 76.9766 318.375>
LayerCount: 3
Fore
SplineSet
591 296 m 0xcf80
 591 468 469 582 364 582 c 0
 226 582 141 433 141 305 c 0
 141 136 248 24 365 24 c 0
 534 24 591 175 591 296 c 0xcf80
263 -7 m 0
 138 36 36 136 36 294 c 0
 36 476 176 628 360 628 c 0
 553 628 691 479 691 312 c 0
 691 163 601 32 471 -2 c 0
 449 -8 438 -13 438 -17 c 0
 438 -22 479 -69 492 -84 c 0
 520 -116 656 -232 878 -232 c 0
 1021 -232 1070 -205 1102 -187 c 1
 1110 -195 1117 -204 1117 -219 c 1
 1090 -252 936 -285 844 -285 c 0
 656 -285 440 -224 345 -52 c 0
 335 -33 331 -22 327 -21 c 0
 316 -18 290 -16 263 -7 c 0
730 349 m 1
 766 356 844 370 844 370 c 1xdf80
 856 359 l 1
 856 359 850 307 849 282 c 0
 848 240 847 158 847 151 c 0
 847 84 868 51 918 51 c 0
 962 51 1014 89 1014 89 c 1
 1015 155 1018 224 1018 290 c 0
 1018 317 998 318 971 328 c 1
 971 352 l 1xef80
 1007 357 1083 370 1083 370 c 1xdf80
 1095 359 l 1
 1095 359 1090 280 1090 271 c 0
 1088 237 1087 213 1087 189 c 2
 1087 65 l 2
 1087 48 1096 51 1102 53 c 2
 1151 67 l 1
 1158 61 l 1
 1158 30 l 1
 1116 19 1070 5 1030 -11 c 1
 1017 0 l 1
 1017 57 l 1
 1017 57 948 -9 876 -9 c 0
 816 -9 770 40 770 102 c 0
 770 174 776 270 776 283 c 0
 776 313 753 317 730 324 c 1
 730 349 l 1
EndSplineSet
Ligature2: "'dlig' Discretionary Ligatures in Latin lookup 1 subtable" Q u
EndChar

StartChar: c_t
Encoding: 65539 -1 77
Width: 594
VWidth: 0
Flags: W
HStem: -12 59<452.188 524.235> -11 51<158.379 274.094> 294 78<229.875 297.438> 308 33<332.094 359.303> 312 56<445 568.948> 314 47<445 567> 519 48<251.5 367.853>
VStem: 26 77<101.716 256.719> 174 44<391.801 487.317> 362 75<58.6313 310.888> 370 71<146.122 308> 391 56<370.541 496.48>
LayerCount: 3
Fore
SplineSet
332 341 m 1x93a0
 344 346 354 352 362 360 c 0x93c0
 373 371 391 417 391 439 c 0
 391 482 364 519 312 519 c 0
 261 519 218 477 218 442 c 0
 218 424 220 412 227 398 c 0
 236 381 247 378 267 372 c 0
 287 366 308 358 308 335 c 0
 308 326 284 294 266 294 c 0x2390
 238 294 222 325 193 325 c 0
 130 325 103 258 103 200 c 0
 103 78 176 40 216 40 c 0
 268 40 316 77 316 77 c 1
 328 52 l 1
 328 52 273 -11 194 -11 c 0
 80 -11 26 71 26 164 c 0
 26 271 104 354 203 375 c 1
 186 396 174 418 174 449 c 0
 174 514 237 567 319 567 c 0
 386 567 447 534 447 448 c 0
 447 420 445 388 445 361 c 1x4790
 567 368 l 1
 567 368 569 361 569 342 c 2
 569 337 l 2
 569 323 566 312 566 312 c 1x0b90
 441 314 l 1x07a0
 441 314 437 188 437 144 c 0
 437 95 443 47 492 47 c 0
 528 47 563 76 563 76 c 1
 572 44 l 1
 543 20 500 -12 463 -12 c 0
 392 -12 362 44 362 106 c 0x87c0
 362 124 370 308 370 308 c 1
 337 308 l 1
 332 316 332 322 332 331 c 2
 332 341 l 1x93a0
EndSplineSet
Ligature2: "'dlig' Discretionary Ligatures in Latin lookup 1 subtable" c t
EndChar

StartChar: ampersand
Encoding: 38 38 78
Width: 654
VWidth: 0
Flags: W
LayerCount: 3
Fore
SplineSet
499 -10 m 0
 402 -10 361 103 361 103 c 1
 361 103 290 -12 202 -12 c 0
 112 -12 36 58 36 150 c 0
 36 280 147 319 147 319 c 1
 147 319 114 355 114 391 c 0
 114 458 173 545 244 545 c 0
 304 545 350 500 350 442 c 0
 350 398 293 338 293 338 c 1
 343 310 370 256 393 200 c 1
 394 201 505 376 505 393 c 0
 505 412 481 425 481 447 c 0
 481 459 483 463 498 463 c 0
 538 462 582 460 617 459 c 0
 624 459 628 454 628 441 c 0
 628 431 623 421 612 414 c 0
 586 396 557 370 543 352 c 0
 479 270 410 161 410 161 c 1
 410 161 458 71 523 71 c 0
 558 71 581 90 598 113 c 0
 604 121 608 130 618 130 c 0
 625 130 630 124 630 100 c 0
 630 68 592 -10 499 -10 c 0
174 296 m 0
 173 296 97 249 97 171 c 0
 97 137 120 109 148 91 c 0
 165 80 189 76 216 76 c 0
 294 76 344 134 344 134 c 1
 334 155 298 238 275 260 c 0
 254 280 214 274 174 296 c 0
248 351 m 0
 274 351 282 392 282 416 c 0
 282 454 257 484 217 484 c 0
 194 484 164 458 164 427 c 0
 164 406 181 379 197 365 c 0
 210 354 233 351 248 351 c 0
EndSplineSet
EndChar

StartChar: dollar
Encoding: 36 36 79
Width: 430
VWidth: 0
Flags: W
LayerCount: 3
Fore
SplineSet
304 534 m 0
 285 521 278 519 250 515 c 0
 195 508 144 501 144 436 c 0
 144 392 186 360 238 338 c 1
 251 375 288 470 308 529 c 0
 312 538 310 538 304 534 c 0
251 254 m 1
 171 31 l 1
 178 29 186 28 194 28 c 0
 207 28 221 30 231 33 c 0
 277 46 315 88 315 145 c 0
 315 177 310 221 251 254 c 1
89 191 m 0
 107 191 122 181 122 163 c 0
 122 140 94 128 94 101 c 0
 94 62 117 46 134 42 c 1
 217 271 l 1
 154 304 79 334 79 426 c 0
 79 505 142 552 207 552 c 0
 223 552 241 550 253 550 c 0
 309 550 329 594 345 636 c 0
 349 646 353 658 358 672 c 1
 360 673 364 674 367 674 c 0
 381 674 400 666 400 658 c 1
 338 512 309 413 276 322 c 1
 320 296 384 246 384 178 c 0
 384 64 282 -6 204 -6 c 0
 187 -6 171 -6 159 -4 c 1
 128 -84 116 -134 94 -194 c 1
 91 -194 88 -195 85 -195 c 0
 68 -195 54 -188 48 -174 c 1
 81 -101 121 7 121 7 c 17
 43 45 31 96 31 135 c 0
 31 169 43 186 77 190 c 0
 81 191 85 191 89 191 c 0
EndSplineSet
EndChar

StartChar: one
Encoding: 49 49 80
Width: 294
VWidth: 0
Flags: W
HStem: -5 35<34.0058 101.125> 1 37<177.59 259.994> 320 37<42.0068 112.996 182.757 250.997>
VStem: 106 70<38.0426 302> 113 70<85.1018 319.309>
LayerCount: 3
Fore
SplineSet
152 3 m 0x70
 118 3 88 -2 39 -5 c 1
 36 0 34 7 34 13 c 0
 34 19 36 24 38 30 c 1
 87 35 l 2
 102 37 105 52 106 67 c 0xb0
 107 84 107 109 109 184 c 2
 113 302 l 2
 113 313 108 320 80 320 c 2
 47 320 l 1
 43 325 42 330 42 338 c 0
 42 344 44 352 46 357 c 1
 76 355 100 354 123 354 c 0
 171 354 207 357 247 360 c 1
 250 353 251 346 251 339 c 0
 251 332 250 326 246 322 c 1
 205 323 l 2
 191 323 183 312 183 308 c 0xa8
 182 288 176 147 176 82 c 0
 176 57 177 38 198 38 c 2
 253 37 l 1
 258 31 260 26 260 20 c 0
 260 14 258 8 255 1 c 1
 235 1 l 2
 198 1 178 3 152 3 c 0x70
EndSplineSet
EndChar

StartChar: two
Encoding: 50 50 81
Width: 390
VWidth: -2
Flags: W
HStem: -2 64<138 348.852> 335 47<115.657 237.126>
VStem: 254 82<219.187 317.788>
LayerCount: 3
Fore
SplineSet
336 294 m 0
 336 206 262 161 178 94 c 0
 156 76 138 64 138 64 c 1
 138 64 183 62 232 62 c 0
 257 62 282 62 304 64 c 0
 313 65 318 67 324 69 c 0
 330 71 350 79 355 79 c 0
 363 79 365 74 365 68 c 0
 365 65 365 62 364 60 c 0
 360 41 355 26 349 7 c 0
 346 -1 333 -2 321 -2 c 0
 231 -2 192 1 96 1 c 0
 77 1 72 -4 51 -4 c 0
 35 -4 28 8 28 22 c 0
 28 33 35 37 44 44 c 0
 128 104 254 176 254 278 c 0
 254 310 217 335 187 335 c 0
 108 335 61 279 42 279 c 0
 33 279 27 290 27 298 c 0
 27 308 50 324 73 338 c 0
 109 359 151 382 209 382 c 0
 276 382 336 356 336 294 c 0
EndSplineSet
EndChar

StartChar: three
Encoding: 51 51 82
Width: 370
VWidth: 5
Flags: W
LayerCount: 3
Fore
SplineSet
54 339 m 0
 106 370 153 379 197 379 c 0
 254 379 307 341 307 281 c 0
 307 206 223 157 181 128 c 0
 171 121 172 118 184 120 c 0
 194 121 204 121 213 121 c 0
 284 121 332 77 332 17 c 0
 332 -19 321 -49 305 -75 c 0
 240 -177 109 -202 32 -202 c 0
 23 -202 18 -196 18 -178 c 0
 18 -172 23 -165 28 -164 c 0
 47 -162 67 -159 86 -156 c 0
 165 -142 250 -91 250 -11 c 0
 250 31 219 83 143 83 c 0
 117 83 109 73 100 73 c 0
 91 73 78 85 78 94 c 0
 78 97 80 100 83 102 c 0
 131 134 233 195 233 256 c 0
 233 308 192 331 158 331 c 0
 129 331 111 324 78 310 c 0
 75 309 70 307 67 307 c 0
 57 307 49 319 49 329 c 0
 49 333 50 337 54 339 c 0
EndSplineSet
EndChar

StartChar: four
Encoding: 52 52 83
Width: 442
VWidth: 0
Flags: W
LayerCount: 3
Fore
SplineSet
86 54 m 25
 262 54 l 25
 262 278 l 25
 86 54 l 25
43 68 m 2
 279 367 l 2
 288 379 297 388 314 388 c 0
 331 388 333 373 333 366 c 0
 333 312 327 317 327 78 c 2
 327 54 l 9
 421 54 l 17
 423 45 424 37 424 28 c 0
 424 17 423 7 421 0 c 9
 327 0 l 17
 327 -87 l 2
 327 -138 327 -195 329 -208 c 0
 330 -219 319 -220 309 -220 c 2
 272 -220 l 2
 258 -220 254 -217 254 -208 c 0
 254 -201 254 -198 255 -190 c 0
 258 -157 262 -75 262 -5 c 2
 262 0 l 1
 52 0 l 2
 33 0 32 6 32 18 c 2
 32 33 l 2
 32 50 35 58 43 68 c 2
EndSplineSet
EndChar

StartChar: five
Encoding: 53 53 84
Width: 390
VWidth: 0
Flags: W
LayerCount: 3
Fore
SplineSet
96 354 m 0xd0
 150 356 173 357 267 360 c 0
 284 361 292 381 306 381 c 0
 321 381 326 369 326 356 c 0
 326 332 317 312 294 306 c 0xb0
 255 295 202 292 163 292 c 2
 133 292 l 2
 119 292 110 290 107 269 c 0
 106 261 104 246 104 244 c 0
 104 227 113 225 146 223 c 0
 215 219 352 198 352 61 c 0
 352 -98 146 -214 84 -214 c 0
 76 -214 68 -208 68 -195 c 0
 68 -184 85 -178 96 -172 c 0
 167 -137 273 -65 273 40 c 0
 273 134 194 175 77 176 c 0
 62 176 48 187 48 202 c 0
 48 204 48 207 49 210 c 0
 66 268 68 286 77 343 c 0
 78 351 88 354 96 354 c 0xd0
EndSplineSet
EndChar

StartChar: six
Encoding: 54 54 85
Width: 470
VWidth: 0
Flags: W
HStem: -12 37<198.839 297.124> 331 33<167.739 270.318> 571 28<342.455 406.088>
VStem: 51 81<102.584 300.725> 346 76<86.0814 247.299>
LayerCount: 3
Fore
SplineSet
250 25 m 0
 308 25 346 92 346 154 c 0
 346 229 297 331 224 331 c 0
 145 331 132 269 132 209 c 0
 132 124 172 25 250 25 c 0
156 345 m 1
 187 359 223 364 245 364 c 0
 353 364 422 283 422 180 c 0
 422 78 355 -12 234 -12 c 0
 123 -12 51 90 51 202 c 0
 51 393 185 599 401 599 c 1
 409 595 409 576 404 571 c 1
 220 554 165 386 156 345 c 1
EndSplineSet
EndChar

StartChar: f_f
Encoding: 65540 -1 86
Width: 522
VWidth: 0
Flags: HW
HStem: -6 38<19.0133 57.3914 244.188 282.391> 0 40<148.969 200.807 373.689 446.999> 313 53<370 493.966> 321 43<18 76 145 301 370 475.875> 607 40<204.176 310.5> 610 58<433.003 528.265>
VStem: 76 69<39.3034 321 364 511.63> 301 69<41.81 318 364 528.439>
LayerCount: 3
Fore
SplineSet
145 321 m 1x93
 147 99 l 2
 147 65 148 42 160 40 c 2
 199 35 l 1
 200 30 201 21 201 15 c 0
 201 10 200 5 198 0 c 1x53
 164 0 39 -5 26 -6 c 1
 21 -2 19 6 19 14 c 0
 19 20 20 27 22 32 c 1
 33 34 45 35 58 38 c 0
 68 41 74 53 74 71 c 2
 76 321 l 1
 22 321 l 1
 22 321 18 329 18 341 c 2
 18 346 l 2
 18 356 21 364 21 364 c 1
 76 364 l 1
 76 486 97 546 169 605 c 0
 194 626 235 647 294 647 c 0
 327 647 364 638 381 607 c 1x9b
 385 611 389 615 393 618 c 0
 420 640 456 668 517 668 c 0
 547 668 581 662 581 636 c 0
 581 612 571 582 552 582 c 0
 529 582 497 610 468 610 c 0
 447 610 430 606 418 595 c 0
 376 559 370 454 370 401 c 2
 370 364 l 1x17
 492 366 l 1
 492 366 494 361 494 342 c 2
 494 337 l 2
 494 323 491 313 491 313 c 1
 370 318 l 1
 372 99 l 2
 372 65 373 42 385 42 c 2
 442 40 l 1
 445 35 447 28 447 20 c 0
 447 13 446 6 441 0 c 1x63
 434 0 363 2 347 2 c 0
 299 2 251 -3 251 -3 c 1
 246 1 244 9 244 17 c 0
 244 23 245 27 247 32 c 1
 258 34 270 36 283 39 c 0
 293 42 299 53 299 71 c 2
 301 321 l 1
 145 321 l 1x93
340 560 m 1
 308 560 287 607 248 607 c 0x1b
 170.610964742 607 145 515.425613998 145 364 c 1
 301 364 l 1
 301 408 303 452 313 499 c 0
 318 521 327 541 340 560 c 1
EndSplineSet
Ligature2: "'liga' Standard Ligatures in Latin lookup 0 subtable" f f
LCarets2: 1 0 
EndChar

StartChar: f_i
Encoding: 65541 -1 87
Width: 449
VWidth: 0
Flags: W
HStem: 2 36<17.3438 57.3906 147.371 199.963 248 297.214 369.187 430.833> 318 46<18.0192 76 145 292.356> 610 58<208.003 307.278>
VStem: 76 69<40.1458 318 364 528.439> 298 71<38.2344 313.125>
LayerCount: 3
Fore
SplineSet
250 -2 m 1
 248 4 246 12 246 19 c 0
 246 24 246 28 248 32 c 1
 278 36 l 2
 296 39 298 54 298 67 c 2
 298 269 l 2
 298 299 282 318 268 318 c 2
 145 318 l 1
 147 99 l 1
 147 69 l 2
 147 51 148 40 156 39 c 2
 196 36 l 1
 199 33 200 28 200 22 c 0
 200 13 198 4 197 -1 c 1
 162 0 123 3 107 3 c 0
 59 3 23 -2 23 -2 c 1
 19 1 17 8 17 15 c 0
 17 22 19 29 21 35 c 1
 32 37 45 37 58 40 c 0
 68 43 74 53 74 71 c 2
 76 321 l 1
 22 321 l 1
 22 321 18 329 18 341 c 2
 18 346 l 2
 18 356 21 364 21 364 c 1
 76 364 l 1
 76 408 78 452 88 499 c 0
 98 546 130 587 168 618 c 0
 195 640 231 668 292 668 c 0
 330 668 361 660 361 636 c 0
 361 612 351 582 332 582 c 0
 309 582 272 610 243 610 c 0
 222 610 205 606 193 595 c 0
 151 559 145 454 145 401 c 2
 145 364 l 1
 267 364 l 2
 304 364 337 366 366 383 c 1
 381 373 l 1
 381 373 371 263 371 224 c 2
 369 67 l 2
 369 52 369 38 379 38 c 2
 427 39 l 1
 429 33 431 29 431 23 c 0
 431 17 429 9 427 1 c 1
 414 1 415 2 395 2 c 2
 346 2 l 2
 311 2 293 0 250 -2 c 1
EndSplineSet
Ligature2: "'liga' Standard Ligatures in Latin lookup 0 subtable" f i
LCarets2: 1 0 
EndChar

StartChar: f_l
Encoding: 65542 -1 88
Width: 456
VWidth: 0
Flags: W
HStem: -1 36<14.0015 66.5199 144.893 195.999 244.314 291.048 367.543 426.977> 3 32<21.0254 66.0937 145.322 189.628> 318 46<13.0192 71 140 299> 605 63<211.291 300.5>
VStem: 71 69<34.9091 318 364 526.783> 290 77<35.9434 316.03> 300 67<186.292 318 364 591.972>
LayerCount: 3
Fore
SplineSet
421 35 m 1xbc
 425 29 427 23 427 16 c 0
 427 10 426 4 424 -1 c 1
 391 1 360 2 336 2 c 0
 305 2 278 0 246 -4 c 1
 245 0 244 5 244 10 c 0
 244 17 245 24 246 29 c 1
 264 32 288 33 290 47 c 0
 294 68 295 86 296 184 c 0
 297 233 298 276 299 318 c 1
 140 318 l 1
 142 99 l 2
 142 65 144 35 156 35 c 2xbc
 192 34 l 1
 194 31 196 25 196 17 c 0
 196 11 195 4 190 -2 c 1
 183 -2 116 3 73 3 c 0x7c
 56 3 21 -1 21 -1 c 1
 16 3 14 9 14 17 c 0
 14 23 16 29 18 34 c 1
 18 34 22 34 53 35 c 0
 62 35 69 53 69 71 c 2
 71 321 l 1
 17 321 l 1
 17 321 13 329 13 341 c 2
 13 346 l 2
 13 356 16 364 16 364 c 1
 71 364 l 1
 71 408 73 452 83 499 c 0
 93 546 123 580 161 611 c 0
 188 633 231 668 292 668 c 0
 309 668 327 666 340 659 c 1
 349 662 359 667 367 667 c 0xba
 376 667 385 661 385 651 c 0
 385 645 381 622 379 612 c 0
 376 592 373 577 372 532 c 0
 371 457 367 338 367 302 c 2
 367 63 l 2
 367 46 371 36 376 36 c 0
 386 36 409 35 421 35 c 1xbc
194 593 m 0
 142 556 140 472 140 417 c 2
 140 364 l 1
 300 364 l 1x3a
 302 421 303 477 303 542 c 0
 303 581 274 605 237 605 c 0
 224 605 206 601 194 593 c 0
EndSplineSet
Ligature2: "'liga' Standard Ligatures in Latin lookup 0 subtable" f l
LCarets2: 1 0 
EndChar

StartChar: f_f_i
Encoding: 65543 -1 89
Width: 680
VWidth: 0
Flags: W
HStem: -2 39<244.094 284.391 473.036 524.314> 2 36<17.0015 71.9543 149.729 199 250.026 284.391 374.535 426.963 596.187 657.833> 321 43<18 76 145 303 372 517.707> 607 40<204.254 310.5> 610 58<435.003 534.278>
VStem: 76 69<42.6299 321 364 511.63> 303 69<42.1458 318 364 525.075> 525 71<38.2344 313.125>
LayerCount: 3
Fore
SplineSet
145 364 m 1x37
 303 364 l 1
 303 408 305 452 315 499 c 0
 319 517 335 552 342 560 c 1
 310 560 287 607 248 607 c 0
 171 607 145 515 145 364 c 1x37
303 321 m 1
 145 321 l 1
 147 99 l 2
 147 65 148 44 160 43 c 2
 199 40 l 1
 200 35 201 24 201 18 c 0
 201 13 200 8 198 3 c 1
 178 4 159 5 140 5 c 0
 83 5 24 0 24 0 c 1
 19 4 17 12 17 20 c 0
 17 26 18 33 20 38 c 1
 31 40 45 38 58 41 c 0
 68 44 74 53 74 71 c 2
 76 321 l 1
 22 321 l 1
 22 321 18 329 18 341 c 2
 18 346 l 2
 18 356 21 364 21 364 c 1
 76 364 l 1
 76 486 97 546 169 605 c 0
 194 626 235 647 294 647 c 0
 327 647 365 638 382 607 c 1x77
 395 618 l 2
 422 640 458 668 519 668 c 0
 557 668 588 660 588 636 c 0
 588 612 578 582 559 582 c 0
 536 582 499 610 470 610 c 0
 449 610 432 606 420 595 c 0
 378 559 372 454 372 401 c 2
 372 364 l 1
 494 364 l 2
 531 364 564 366 593 383 c 1
 608 373 l 1
 608 373 598 263 598 224 c 2
 596 67 l 2
 596 52 596 38 606 38 c 2
 654 39 l 1
 656 33 658 29 658 23 c 0
 658 17 656 9 654 1 c 1
 641 1 642 2 622 2 c 2
 573 2 l 2x6f
 538 2 520 0 477 -2 c 1xa7
 475 4 473 12 473 19 c 0
 473 24 473 28 475 32 c 1
 505 36 l 2
 523 39 525 54 525 67 c 2
 525 269 l 2
 525 299 509 318 495 318 c 2
 372 318 l 1
 374 71 l 2
 374 53 375 42 383 41 c 2
 423 38 l 1x67
 426 35 427 28 427 22 c 0
 427 13 425 4 424 -1 c 1
 389 0 350 3 334 3 c 0
 286 3 250 -2 250 -2 c 1
 246 1 244 8 244 15 c 0
 244 22 246 31 248 37 c 1xa7
 259 39 272 39 285 42 c 0
 295 45 301 55 301 73 c 2
 303 321 l 1
EndSplineSet
Ligature2: "'liga' Standard Ligatures in Latin lookup 0 subtable" f f i
LCarets2: 2 0 0 
EndChar

StartChar: f_f_l
Encoding: 65544 -1 90
Width: 680
VWidth: 0
Flags: HW
HStem: -8 35<19.0732 70.5383 164.875 196.369> 0 32<246.001 250 250.003 252 252.026 297.399 376.58 421.628 422 427.999 476.035 478 656 658.999> 318 46<18.0192 76 145 303 372 531> 605 63<443.291 532.5> 607 40<204.254 310.5>
VStem: 76 69<35.0288 321 364 511.63> 303 69<32 318 364 526.783> 522 77<34.0203 316.03> 532 67<186.292 318 364 591.972>
LayerCount: 3
Fore
SplineSet
426 593 m 0x3680
 374 556 372 472 372 417 c 2
 372 364 l 1
 532 364 l 1
 534 421 535 477 535 542 c 0
 535 581 506 605 469 605 c 0
 456 605 438 601 426 593 c 0x3680
653 33 m 1
 657 27 659 21 659 14 c 0
 659 8 658 2 656 -3 c 1
 623 -1 592 0 568 0 c 0x77
 537 0 510 -2 478 -6 c 1
 477 -2 476 3 476 8 c 0
 476 15 477 22 478 27 c 1xa7
 496 30 520 33 522 47 c 0
 526 68 527 86 528 184 c 0
 529 233 530 276 531 318 c 1
 372 318 l 1
 373 241 374 165 374 88 c 0
 374 58 375 32 390 32 c 2
 424 32 l 1
 426 29 428 23 428 15 c 0
 428 9 427 2 422 -4 c 1
 415 -4 348 0 305 0 c 0
 288 0 252 -3 252 -3 c 1
 248 2 246 7 246 13 c 0
 246 18 248 23 250 29 c 1
 250 29 254 31 285 32 c 0x67
 294 32 301 53 301 71 c 2
 303 321 l 1
 145 321 l 1
 147 99 l 2
 147 65 148 36 160 35 c 2
 199 33 l 1
 200 28 201 19 201 13 c 0
 201 8 200 3 198 -2 c 1
 164 -2 79 -2 26 -8 c 1
 21 -4 19 4 19 12 c 0
 19 18 20 22 22 27 c 1
 58 30 74 26 74 69 c 2
 76 321 l 1
 22 321 l 1
 22 321 18 329 18 341 c 2
 18 346 l 2
 18 356 21 364 21 364 c 1
 76 364 l 1
 76 486 97 546 169 605 c 0xb7
 194 626 235 647 294 647 c 0
 327 647 364 638 381 607 c 0x2f
 382 606 382 604 383 603 c 1
 393 611 l 2
 420 633 463 668 524 668 c 0
 541 668 559 666 572 659 c 1
 581 662 591 667 599 667 c 0x3680
 608 667 617 661 617 651 c 0
 617 645 613 622 611 612 c 0
 608 592 605 577 604 532 c 0
 603 457 599 338 599 302 c 2
 599 63 l 2x37
 599 46 603 34 608 34 c 0
 618 34 641 33 653 33 c 1
340 560 m 2
 308 560 287 607 248 607 c 0x2e
 171 607 145 515 145 364 c 1
 303 364 l 1
 303 408 305 452 315 499 c 0
 320 522 330 542 343 560 c 1
 340 560 l 2
EndSplineSet
LCarets2: 2 0 0 
Ligature2: "'liga' Standard Ligatures in Latin lookup 0 subtable" f f l
EndChar
